<?xml version="1.0" encoding="UTF-8"?>
<svg version="1.1" xmlns="http://www.w3.org/2000/svg" width="821" height="304">
<path d="M0 0 C1.1651413 0.26671509 2.33028259 0.53343018 3.5307312 0.80822754 C7.79909586 1.82551646 12.03696312 2.95088105 16.27734375 4.078125 C17.85404059 4.49135856 19.43091303 4.90392267 21.00794983 5.31585693 C25.14680482 6.39886968 29.28322868 7.49089419 33.41918945 8.5848999 C37.56773957 9.68055552 41.71853142 10.7676449 45.86914062 11.85546875 C57.01351736 14.77849961 68.15577825 17.70959782 79.28979492 20.671875 C80.17079361 20.90565857 81.0517923 21.13944214 81.95948792 21.38031006 C83.4663984 21.78053284 84.97284561 22.18250801 86.47862244 22.5869751 C91.94950535 24.03954896 97.45033126 25.11952458 103.0078125 26.18359375 C107.97586518 27.1692369 112.89364398 28.35806084 117.8125 29.5625 C118.69156006 29.77261719 119.57062012 29.98273437 120.47631836 30.19921875 C121.29495361 30.40289062 122.11358887 30.6065625 122.95703125 30.81640625 C123.68897705 30.99631104 124.42092285 31.17621582 125.17504883 31.36157227 C127 32 127 32 129 34 C128.625 36.625 128.625 36.625 128 39 C123.76500802 40.14249828 119.52915943 41.28174652 115.29248047 42.41796875 C113.85083311 42.8050928 112.40942518 43.19310962 110.96826172 43.58203125 C108.89873301 44.14036246 106.8283692 44.69549498 104.7578125 45.25 C103.5114502 45.58515625 102.26508789 45.9203125 100.98095703 46.265625 C98 47 98 47 96 47 C96 62.51 96 78.02 96 94 C96.66 94 97.32 94 98 94 C98 97.96 98 101.92 98 106 C100.475 105.505 100.475 105.505 103 105 C113.45348088 104.04968356 125.0894347 105.33555511 133.5 112.125 C142.19330693 120.85553736 146.08212919 131.35806442 146.375 143.5 C146.11507978 154.2650293 143.36166524 161.41517218 137 170 C136.443125 170.886875 135.88625 171.77375 135.3125 172.6875 C127.2453214 180.7546786 117.8713238 182.25897619 107.01391602 182.32788086 C100.7616491 182.24778019 92.69019075 181.69019075 88 177 C87.67 187.23 87.34 197.46 87 208 C79.41 208 71.82 208 64 208 C64 174.67 64 141.34 64 107 C69.61 107 75.22 107 81 107 C81.99 108.65 82.98 110.3 84 112 C85.65 111.01 87.3 110.02 89 109 C88.34 108.34 87.68 107.68 87 107 C86.8046875 104.1796875 86.8046875 104.1796875 86.875 100.875 C86.89304688 99.77929688 86.91109375 98.68359375 86.9296875 97.5546875 C86.95289063 96.71164063 86.97609375 95.86859375 87 95 C87.99 94.67 88.98 94.34 90 94 C89.67 79.15 89.34 64.3 89 49 C81.89406591 50.64192373 81.89406591 50.64192373 74.78979492 52.29101562 C73.90396729 52.49404297 73.01813965 52.69707031 72.10546875 52.90625 C71.19949951 53.11572266 70.29353027 53.32519531 69.36010742 53.54101562 C67 54 67 54 64 54 C64.00523682 54.81267334 64.01047363 55.62534668 64.01586914 56.46264648 C64.03656994 60.12092322 64.04963803 63.77918767 64.0625 67.4375 C64.07087891 68.71689453 64.07925781 69.99628906 64.08789062 71.31445312 C64.09111328 72.52939453 64.09433594 73.74433594 64.09765625 74.99609375 C64.10289307 76.12200928 64.10812988 77.2479248 64.11352539 78.40795898 C64 81 64 81 63 82 C54.34439185 81.85390954 45.96790442 79.83468177 37.57617188 77.90429688 C22.4167295 74.56781683 7.2337241 73.613716 -8.25 73.6875 C-9.05393188 73.68932281 -9.85786377 73.69114563 -10.68615723 73.69302368 C-23.66718346 73.74231831 -36.23343969 74.51119555 -49 77 C-50.6099585 77.31324219 -50.6099585 77.31324219 -52.25244141 77.6328125 C-56.77166409 78.52196557 -61.28850827 79.41693557 -65.79394531 80.3737793 C-66.79135742 80.58429932 -67.78876953 80.79481934 -68.81640625 81.01171875 C-69.69756104 81.20209717 -70.57871582 81.39247559 -71.48657227 81.58862305 C-74.05218817 82.00854173 -76.40527469 82.14404135 -79 82 C-80 81 -80 81 -80.11352539 78.95874023 C-80.10828857 78.08419189 -80.10305176 77.20964355 -80.09765625 76.30859375 C-80.09443359 75.36435547 -80.09121094 74.42011719 -80.08789062 73.44726562 C-80.07532227 71.95743164 -80.07532227 71.95743164 -80.0625 70.4375 C-80.05798828 69.44041016 -80.05347656 68.44332031 -80.04882812 67.41601562 C-80.03700007 64.94395151 -80.02051849 62.47200482 -80 60 C-60.71087901 52.66256966 -40.43642716 49.3831195 -20 47 C-27.94467327 46.84278351 -35.62411024 47.2120564 -43.5 48.25 C-44.5310083 48.37987305 -45.5620166 48.50974609 -46.62426758 48.64355469 C-54.16059817 49.63750929 -61.58652601 50.97913127 -68.96484375 52.81738281 C-82.87866172 55.99785781 -96.65895264 51.40824116 -110.10400391 47.96240234 C-113.38527138 47.12237044 -116.67064729 46.30022946 -119.95703125 45.48046875 C-122.06276312 44.948958 -124.16824135 44.41644115 -126.2734375 43.8828125 C-127.2464682 43.63894806 -128.2194989 43.39508362 -129.22201538 43.14382935 C-134.38928157 41.81168824 -139.16178219 40.25672179 -144 38 C-144 36.35 -144 34.7 -144 33 C-133.0567139 29.69238298 -122.1188732 26.73232851 -110.93359375 24.359375 C-94.88237978 20.86844908 -79.02780524 16.67854113 -63.15118408 12.47705078 C-57.08973448 10.87379712 -51.02616808 9.27859014 -44.9621315 7.68515396 C-42.89204476 7.14018508 -40.82278455 6.59217241 -38.75363159 6.04367065 C-35.51358195 5.18669004 -32.26881845 4.34917997 -29.02120209 3.52126312 C-27.62022884 3.15995552 -26.22110289 2.79143769 -24.82352448 2.41721344 C-8.43035244 -1.96554167 -8.43035244 -1.96554167 0 0 Z M88.5546875 132.60546875 C85.33981021 137.33785805 85.14906399 142.46023293 86 148 C87.83420259 153.91478814 90.93242829 157.55405124 96 161 C101.08819761 163.48756328 105.60202221 163.27177487 111 162 C117.17257662 159.84391036 120.15458643 155.72610086 123 150 C124.6270583 145.1188251 124.41143185 141.25594987 122.8125 136.375 C119.7963007 130.75862888 116.04501596 127.12695006 110 125 C100.99249615 123.59914404 94.66485656 125.8182269 88.5546875 132.60546875 Z " fill="#FBC50C" transform="translate(167,30)"/>
<path d="M0 0 C4.17460786 0.13456382 6.68818867 0.34830019 10.23046875 2.67773438 C12.5949122 5.58113184 14.46408584 8.55523178 16.35546875 11.78710938 C17.60360907 13.64888049 18.88612673 15.48383712 20.17114258 17.3203125 C21.57165785 19.32824114 22.9444809 21.35331316 24.31640625 23.38085938 C31.63824261 34.09811819 39.56632494 44.4075377 47.35546875 54.78710938 C47.36577621 54.12534195 47.37608368 53.46357452 47.38670349 52.78175354 C47.49452824 45.92039625 47.60914484 39.05917672 47.7277832 32.19799805 C47.77120941 29.63422516 47.8128786 27.07042191 47.8527832 24.5065918 C47.91030022 20.83047309 47.97404738 17.15450838 48.0390625 13.47851562 C48.05577499 12.32436661 48.07248749 11.17021759 48.08970642 9.98109436 C48.10965164 8.92007004 48.12959686 7.85904572 48.15014648 6.76586914 C48.16569077 5.82655045 48.18123505 4.88723175 48.19725037 3.91944885 C48.35546875 1.78710938 48.35546875 1.78710938 49.35546875 0.78710938 C50.97804419 0.68794367 52.60486706 0.65631161 54.23046875 0.65429688 C55.2153125 0.65300781 56.20015625 0.65171875 57.21484375 0.65039062 C58.25125 0.65425781 59.28765625 0.658125 60.35546875 0.66210938 C61.91007813 0.65630859 61.91007813 0.65630859 63.49609375 0.65039062 C64.4809375 0.65167969 65.46578125 0.65296875 66.48046875 0.65429688 C67.39054688 0.6554248 68.300625 0.65655273 69.23828125 0.65771484 C71.35546875 0.78710938 71.35546875 0.78710938 72.35546875 1.78710938 C72.45076487 4.80061175 72.48098779 7.79115043 72.46899414 10.80493164 C72.46914017 11.75117401 72.46928619 12.69741638 72.46943665 13.67233276 C72.46873711 16.81608329 72.46094284 19.95977538 72.453125 23.10351562 C72.45126096 25.27685005 72.44983699 27.4501849 72.44883728 29.6235199 C72.44501096 35.35612133 72.43517972 41.0886976 72.4241333 46.82128906 C72.41392162 52.66601216 72.40934018 58.51073931 72.40429688 64.35546875 C72.39355755 75.83269337 72.37647977 87.30989929 72.35546875 98.78710938 C68.95491928 98.89488776 65.55481133 98.96038447 62.15307617 99.01831055 C61.1913726 99.04930595 60.22966904 99.08030136 59.23882294 99.11223602 C52.07471545 99.20386152 52.07471545 99.20386152 48.39692688 97.07284546 C46.3994313 94.87398269 45.05653864 92.72419439 43.66796875 90.09960938 C42.57187729 88.34602615 41.4742135 86.59342477 40.375 84.84179688 C39.86791504 83.97780273 39.36083008 83.11380859 38.83837891 82.22363281 C36.77323615 78.83046114 34.35870831 75.79986903 31.85546875 72.72460938 C29.06993264 69.14191172 26.55262956 65.59650517 24.29296875 61.66210938 C20.73361064 55.4923758 20.73361064 55.4923758 12.35546875 45.78710938 C12.02546875 63.27710938 11.69546875 80.76710938 11.35546875 98.78710938 C3.43546875 98.78710938 -4.48453125 98.78710938 -12.64453125 98.78710938 C-12.66708041 86.15715134 -12.68544525 73.52720658 -12.69634342 60.89723301 C-12.70157271 55.03328774 -12.70867119 49.16935689 -12.7199707 43.30541992 C-12.73079795 37.65149226 -12.73680774 31.99757851 -12.73940849 26.34364128 C-12.74126304 24.18137327 -12.7448842 22.01910607 -12.75026131 19.85684395 C-12.75746958 16.8395228 -12.75852228 13.82225994 -12.75805664 10.80493164 C-12.76165192 9.90150528 -12.76524719 8.99807892 -12.76895142 8.067276 C-12.75312906 -1.34267959 -8.24273192 0.11566611 0 0 Z " fill="#3F4344" transform="translate(603.64453125,85.212890625)"/>
<path d="M0 0 C57.39917695 0 57.39917695 0 68 8 C70.83821321 11.09717427 72.9738093 14.32861172 75 18 C75.53947266 18.92039062 75.53947266 18.92039062 76.08984375 19.859375 C79.71734081 27.41526749 79.20867598 39.04745262 76.875 46.9375 C73.56047987 55.03793938 69.16341122 60.14517628 62 65 C64.05941666 68.66840645 66.12309422 72.33439923 68.1875 76 C68.76564453 77.02996094 69.34378906 78.05992187 69.93945312 79.12109375 C72.51247748 83.68566803 75.09821168 88.21259514 77.92578125 92.625 C80 96 80 96 80 98 C70.76 98 61.52 98 52 98 C48.844375 92.2146875 48.844375 92.2146875 45.625 86.3125 C44.9645166 85.10505127 44.3040332 83.89760254 43.62353516 82.65356445 C42.83922119 81.21049927 42.83922119 81.21049927 42.0390625 79.73828125 C41.50490723 78.75899658 40.97075195 77.77971191 40.42041016 76.77075195 C39 74 39 74 37 69 C32.38 69 27.76 69 23 69 C23 78.57 23 88.14 23 98 C15.41 98 7.82 98 0 98 C0 65.66 0 33.32 0 0 Z M23 21 C23 30.24 23 39.48 23 49 C38.11724346 49.93030684 38.11724346 49.93030684 51.5 44 C54.64685484 39.80419355 54.62706034 35.03366244 54 30 C52.38211358 26.82200881 51.07277163 24.77683463 48.1875 22.6875 C42.42961126 20.87787783 36.5312228 20.86707443 30.5625 20.9375 C26.8190625 20.9684375 26.8190625 20.9684375 23 21 Z " fill="#3F4344" transform="translate(423,86)"/>
<path d="M0 0 C0.92218323 -0.00570007 1.84436646 -0.01140015 2.79449463 -0.01727295 C4.75832974 -0.02674808 6.72218094 -0.03326684 8.68603516 -0.03710938 C11.64906131 -0.04670001 14.61135908 -0.07764955 17.57421875 -0.109375 C32.75342144 -0.19559768 47.26100965 0.18890808 59.01953125 11.125 C66.25157556 18.91567821 68.29471943 27.21607747 68.09765625 37.75 C67.47144754 48.37862358 64.5906491 55.99426932 56.828125 63.453125 C47.160088 71.18324812 35.95174448 72.3693929 24.078125 72.265625 C20.736875 72.245 17.395625 72.224375 13.953125 72.203125 C13.953125 80.783125 13.953125 89.363125 13.953125 98.203125 C6.033125 98.203125 -1.886875 98.203125 -10.046875 98.203125 C-10.06942416 85.57316697 -10.087789 72.9432222 -10.09868717 60.31324863 C-10.10391646 54.44930336 -10.11101494 48.58537251 -10.12231445 42.72143555 C-10.1331417 37.06750788 -10.13915149 31.41359413 -10.14175224 25.75965691 C-10.14360679 23.5973889 -10.14722795 21.43512169 -10.15260506 19.27285957 C-10.15981333 16.25553843 -10.16086603 13.23827557 -10.16040039 10.22094727 C-10.16399567 9.3175209 -10.16759094 8.41409454 -10.17129517 7.48329163 C-10.15671772 -1.18628514 -7.86374223 0.03735618 0 0 Z M13.953125 22.203125 C13.953125 31.773125 13.953125 41.343125 13.953125 51.203125 C16.964375 51.265 19.975625 51.326875 23.078125 51.390625 C24.01543457 51.41793701 24.95274414 51.44524902 25.91845703 51.47338867 C31.03052474 51.52401937 34.53840168 51.07133259 38.953125 48.203125 C42.42300391 44.55062088 43.25325686 41.6065567 43.453125 36.703125 C43.24636004 31.79412478 42.48161324 28.8220873 38.953125 25.203125 C33.33255237 22.18493485 28.81663601 21.81917115 22.515625 22.015625 C18.2771875 22.1084375 18.2771875 22.1084375 13.953125 22.203125 Z " fill="#FBC40B" transform="translate(15.046875,111.796875)"/>
<path d="M0 0 C7.59 0 15.18 0 23 0 C39.19386449 37.9910048 39.19386449 37.9910048 46.046875 56.7109375 C48.01858791 62.09645114 50.11357697 67.42794619 52.25 72.75 C52.57871094 73.57000488 52.90742187 74.39000977 53.24609375 75.23486328 C54.66691936 78.76010561 56.1066919 82.27442893 57.609375 85.765625 C58.06828125 86.83296875 58.5271875 87.9003125 59 89 C59.5878125 90.3303125 59.5878125 90.3303125 60.1875 91.6875 C61 94 61 94 61 98 C52.75 98 44.5 98 36 98 C35.01 95.56625 34.02 93.1325 33 90.625 C32.68675781 89.86010254 32.37351562 89.09520508 32.05078125 88.30712891 C30 83.22222222 30 83.22222222 30 81 C17.79 81 5.58 81 -7 81 C-7.33 83.31 -7.66 85.62 -8 88 C-9.98 92.95 -9.98 92.95 -12 98 C-20.25 98 -28.5 98 -37 98 C-36.20830374 93.24982244 -35.16131705 89.10902457 -33.55078125 84.62890625 C-33.2913826 83.90143692 -33.03198395 83.17396759 -32.76472473 82.42445374 C-28.9107778 71.7971666 -24.50984291 61.38027403 -20.1875 50.9375 C-13.76055354 35.40338721 -7.57143089 19.8171624 -1.7780304 4.03443909 C-1 2 -1 2 0 0 Z M11 33 C9.42909098 36.94930174 7.86262833 40.90032854 6.30029297 44.85302734 C5.7679894 46.19791391 5.23446596 47.54231832 4.69970703 48.88623047 C3.93201919 50.81613217 3.1687107 52.74771573 2.40625 54.6796875 C1.94541016 55.84226074 1.48457031 57.00483398 1.00976562 58.20263672 C-0.11317582 60.81786 -0.11317582 60.81786 0 63 C7.59 63 15.18 63 23 63 C22.25690898 58.54145391 21.5040687 55.27826449 19.93359375 51.1640625 C19.53076172 50.10058594 19.12792969 49.03710938 18.71289062 47.94140625 C18.29201172 46.84699219 17.87113281 45.75257813 17.4375 44.625 C17.01275391 43.50738281 16.58800781 42.38976562 16.15039062 41.23828125 C15.10520253 38.49025861 14.05493476 35.74429248 13 33 C12.34 33 11.68 33 11 33 Z " fill="#3E4142" transform="translate(719,86)"/>
<path d="M0 0 C7.59 0 15.18 0 23 0 C25.47103526 5.55982933 27.77164411 10.89830835 29.84375 16.578125 C32.59460725 24.02633328 35.57622888 31.36046144 38.63812256 38.68527222 C43.87984265 51.24242313 48.98032775 63.85322076 53.93286133 76.52722168 C54.55886905 78.12874052 55.18662498 79.72957715 55.81616211 81.32971191 C56.69275056 83.56018924 57.56235533 85.79325347 58.4296875 88.02734375 C58.69147797 88.69138718 58.95326843 89.3554306 59.22299194 90.03959656 C60.30883606 92.86011343 61 94.9466586 61 98 C52.75 98 44.5 98 36 98 C33.63569887 92.68032247 31.29316826 87.35072595 29 82 C17.45 82 5.9 82 -6 82 C-7.98 86.95 -9.96 91.9 -12 97 C-13 98 -13 98 -15.40844727 98.11352539 C-16.45057373 98.10828857 -17.4927002 98.10305176 -18.56640625 98.09765625 C-19.69111328 98.09443359 -20.81582031 98.09121094 -21.97460938 98.08789062 C-23.15861328 98.07951172 -24.34261719 98.07113281 -25.5625 98.0625 C-26.75037109 98.05798828 -27.93824219 98.05347656 -29.16210938 98.04882812 C-32.10812226 98.03699675 -35.05403681 98.02051287 -38 98 C-36.041365 91.11204744 -33.66789744 84.69760012 -30.6953125 78.17578125 C-29.17034841 74.62450137 -28.00937386 70.99112536 -26.828125 67.3125 C-23.65607982 57.54435796 -19.61455197 48.14353887 -15.625 38.6875 C-14.15575384 35.19270059 -12.68987257 31.69650767 -11.2265625 28.19921875 C-10.87217102 27.35293915 -10.51777954 26.50665955 -10.15264893 25.63473511 C-6.61482143 17.14746723 -3.29759838 8.58332664 0 0 Z M11 32 C9.4268862 35.93012208 7.86050167 39.86283832 6.30029297 43.7980957 C5.76860679 45.13639426 5.23508993 46.47396703 4.69970703 47.81079102 C3.93039 49.73265629 3.16769846 51.65703716 2.40625 53.58203125 C1.71499023 55.31803589 1.71499023 55.31803589 1.00976562 57.08911133 C-0.16386687 59.95887591 -0.16386687 59.95887591 0 63 C7.92 63 15.84 63 24 63 C20.13705423 52.60683637 16.16359318 42.27610232 12 32 C11.67 32 11.34 32 11 32 Z " fill="#3E4142" transform="translate(356,86)"/>
<path d="M0 0 C21.12 0 42.24 0 64 0 C64 6.93 64 13.86 64 21 C50.47 21 36.94 21 23 21 C23 26.94 23 32.88 23 39 C35.54 39 48.08 39 61 39 C61 45.27 61 51.54 61 58 C60 59 60 59 56.48999023 59.11352539 C54.92951578 59.11336626 53.36903607 59.10767142 51.80859375 59.09765625 C50.98875504 59.0962413 50.16891632 59.09482635 49.32423401 59.09336853 C46.69528618 59.08775289 44.06642227 59.07519779 41.4375 59.0625 C39.65950643 59.05748701 37.88151154 59.05292376 36.10351562 59.04882812 C31.73561842 59.03862752 27.3679036 59.01905532 23 59 C23 65.27 23 71.54 23 78 C37.19 78 51.38 78 66 78 C66 84.6 66 91.2 66 98 C44.22 98 22.44 98 0 98 C0 65.66 0 33.32 0 0 Z " fill="#3E4142" transform="translate(514,86)"/>
<path d="M0 0 C8.02098691 5.56000229 11.92010223 12.62128132 14.8984375 21.75 C15.89495754 27.64705391 15.5625 33.69902725 15.5625 39.6796875 C-3.2475 39.6796875 -22.0575 39.6796875 -41.4375 39.6796875 C-37.33556993 46.96207409 -37.33556993 46.96207409 -31.4375 51.6796875 C-28.63598077 52.1300361 -26.35168844 52.33075468 -23.5625 52.3046875 C-22.88058594 52.33691406 -22.19867188 52.36914062 -21.49609375 52.40234375 C-18.37098573 52.40829634 -16.25445302 52.35731426 -13.78979492 50.31298828 C-13.25717041 49.76884277 -12.7245459 49.22469727 -12.17578125 48.6640625 C-8.29069188 44.94149679 -4.86134545 45.05301306 0.35351562 45.15234375 C1.39185547 45.20261719 2.43019531 45.25289062 3.5 45.3046875 C4.56541016 45.33175781 5.63082031 45.35882813 6.72851562 45.38671875 C9.34196823 45.45703586 11.95115175 45.55538312 14.5625 45.6796875 C13.14892269 53.48667303 8.58403564 59.49626378 2.4140625 64.40234375 C-8.82341173 72.1547785 -21.19922163 72.80947443 -34.4375 71.6796875 C-44.67073607 69.51235952 -53.54352912 62.14666089 -59.4375 53.6796875 C-65.12136772 42.55308585 -65.73415023 31.62534371 -62.4765625 19.67578125 C-59.44919981 10.94650613 -54.44375528 3.90151538 -46.23828125 -0.5 C-31.59335978 -7.31274785 -14.4608279 -7.83294844 0 0 Z M-37.109375 18.21484375 C-39.69068457 21.05634313 -39.69068457 21.05634313 -40.4375 24.6796875 C-29.2175 24.6796875 -17.9975 24.6796875 -6.4375 24.6796875 C-10.25199492 17.52247714 -10.25199492 17.52247714 -16.4375 13.6796875 C-24.16846442 11.65146174 -31.1028869 12.69954042 -37.109375 18.21484375 Z " fill="#FBC50E" transform="translate(206.4375,140.3203125)"/>
<path d="M0 0 C5.94 0 11.88 0 18 0 C18.66 1.98 19.32 3.96 20 6 C20.66 5.38125 21.32 4.7625 22 4.125 C29.97860784 -1.52651389 39.67389712 -0.15543505 49 0 C49 6.93 49 13.86 49 21 C46.81375 21.103125 44.6275 21.20625 42.375 21.3125 C36.0927617 21.608832 31.85309079 22.93943443 26.75 26.625 C21.05229657 34.35759751 22.55237848 46.86745849 22.375 56.0625 C22.33675081 57.7077014 22.29769523 59.35288426 22.2578125 60.99804688 C22.16107386 64.99859292 22.08091475 68.99897861 22 73 C14.74 73 7.48 73 0 73 C0 48.91 0 24.82 0 0 Z " fill="#FBC50E" transform="translate(90,137)"/>
<path d="M0 0 C0.92218323 -0.00570007 1.84436646 -0.01140015 2.79449463 -0.01727295 C4.75832974 -0.02674808 6.72218094 -0.03326684 8.68603516 -0.03710938 C11.64906131 -0.04670001 14.61135908 -0.07764955 17.57421875 -0.109375 C30.42421527 -0.18181735 42.90617819 -0.24714145 53.953125 7.203125 C53.293125 7.533125 52.633125 7.863125 51.953125 8.203125 C49.96484375 7.4609375 49.96484375 7.4609375 47.640625 6.328125 C30.91563053 -1.79300984 8.07514183 3.203125 -8.046875 3.203125 C-8.046875 34.223125 -8.046875 65.243125 -8.046875 97.203125 C-1.446875 97.203125 5.153125 97.203125 11.953125 97.203125 C11.92992188 95.34945312 11.90671875 93.49578125 11.8828125 91.5859375 C11.86405849 89.16667068 11.8458579 86.74739952 11.828125 84.328125 C11.81136719 83.10480469 11.79460938 81.88148438 11.77734375 80.62109375 C11.77089844 79.45449219 11.76445312 78.28789062 11.7578125 77.0859375 C11.74733887 76.00715332 11.73686523 74.92836914 11.72607422 73.81689453 C11.953125 71.203125 11.953125 71.203125 13.953125 69.203125 C15.92431641 68.97607422 15.92431641 68.97607422 18.3046875 69.0078125 C19.58085938 69.01748047 19.58085938 69.01748047 20.8828125 69.02734375 C22.21699219 69.05248047 22.21699219 69.05248047 23.578125 69.078125 C24.4753125 69.08714844 25.3725 69.09617187 26.296875 69.10546875 C28.51589086 69.1290753 30.73437577 69.1620019 32.953125 69.203125 C33.448125 67.718125 33.448125 67.718125 33.953125 66.203125 C40.883125 66.698125 40.883125 66.698125 47.953125 67.203125 C47.953125 66.543125 47.953125 65.883125 47.953125 65.203125 C50.263125 64.873125 52.573125 64.543125 54.953125 64.203125 C52.12619464 66.48290755 49.45192331 67.99332006 46.078125 69.328125 C45.25570312 69.66070312 44.43328125 69.99328125 43.5859375 70.3359375 C37.13015438 72.46232304 30.79739065 72.32434712 24.078125 72.265625 C20.736875 72.245 17.395625 72.224375 13.953125 72.203125 C13.953125 80.783125 13.953125 89.363125 13.953125 98.203125 C6.033125 98.203125 -1.886875 98.203125 -10.046875 98.203125 C-10.06942416 85.57316697 -10.087789 72.9432222 -10.09868717 60.31324863 C-10.10391646 54.44930336 -10.11101494 48.58537251 -10.12231445 42.72143555 C-10.1331417 37.06750788 -10.13915149 31.41359413 -10.14175224 25.75965691 C-10.14360679 23.5973889 -10.14722795 21.43512169 -10.15260506 19.27285957 C-10.15981333 16.25553843 -10.16086603 13.23827557 -10.16040039 10.22094727 C-10.16399567 9.3175209 -10.16759094 8.41409454 -10.17129517 7.48329163 C-10.15671772 -1.18628514 -7.86374223 0.03735618 0 0 Z " fill="#F4D768" transform="translate(15.046875,111.796875)"/>
<path d="M0 0 C3.02508145 1.73602105 5.41790069 3.83580137 7 7 C7.57971014 14.07246377 7.57971014 14.07246377 5.125 18 C3 20 3 20 1 20 C1 20.66 1 21.32 1 22 C2.98 21.34 4.96 20.68 7 20 C7 21.32 7 22.64 7 24 C2.72834646 26.19685039 2.72834646 26.19685039 -0.3125 25.375 C-1.199375 24.92125 -2.08625 24.4675 -3 24 C-3.64453125 23.70609375 -4.2890625 23.4121875 -4.953125 23.109375 C-12.83208955 19.43252488 -12.83208955 19.43252488 -15 16 C-15.61513981 12.54935857 -15.66346025 9.44553304 -15 6 C-10.83421325 0.62832762 -6.76515376 -1.15472012 0 0 Z M-9.375 5.625 C-11.46379841 8.67785921 -11.54068562 10.36968224 -11 14 C-9.38345245 16.60443772 -8.03680893 16.98719689 -5.125 18 C-1.8280462 18.29928668 -1.8280462 18.29928668 0.9375 15.9375 C3.29928668 13.1719538 3.29928668 13.1719538 3 9.875 C1.79581731 6.28986931 1.79581731 6.28986931 -1 4 C-4.63031776 3.45931438 -6.32214079 3.53620159 -9.375 5.625 Z " fill="#494949" transform="translate(383,205)"/>
<path d="M0 0 C2.0625 -0.04125 4.125 -0.0825 6.25 -0.125 C7.99023438 -0.15980469 7.99023438 -0.15980469 9.765625 -0.1953125 C12.84968491 -0.009077 14.53597366 0.16974966 17 2 C17.74439973 5.4118321 18 8.51394686 18 12 C18.33 12.33 18.66 12.66 19 13 C19.27768116 15.63797099 19.39431072 17.3509983 17.99609375 19.65234375 C14.83935953 21.78360266 11.47691537 21.31136447 7.8125 21.1875 C5.234375 21.125625 2.65625 21.06375 0 21 C0 14.07 0 7.14 0 0 Z M4 4 C4 5.65 4 7.3 4 9 C5.27875 9.061875 6.5575 9.12375 7.875 9.1875 C8.95394531 9.23970703 8.95394531 9.23970703 10.0546875 9.29296875 C10.69664062 9.19628906 11.33859375 9.09960938 12 9 C12.66 8.01 13.32 7.02 14 6 C12.23863645 3.81668311 12.23863645 3.81668311 10.0546875 3.8046875 C7.02734375 3.90234375 7.02734375 3.90234375 4 4 Z M4 13 C4 14.65 4 16.3 4 18 C9.36090593 18.53673893 9.36090593 18.53673893 14 16.5 C14.33 16.005 14.66 15.51 15 15 C13.21342243 12.78629949 13.21342243 12.78629949 10.8359375 12.8046875 C10.02382813 12.82789063 9.21171875 12.85109375 8.375 12.875 C7.14910156 12.90207031 7.14910156 12.90207031 5.8984375 12.9296875 C4.95871094 12.96449219 4.95871094 12.96449219 4 13 Z " fill="#444444" transform="translate(632,205)"/>
<path d="M0 0 C1.11375 0.15339844 2.2275 0.30679688 3.375 0.46484375 C8.24074836 1.07306229 13.10392803 1.33311414 18 1.5625 C18.87011719 1.60568359 19.74023438 1.64886719 20.63671875 1.69335938 C22.75768219 1.79824218 24.87882433 1.89950075 27 2 C29 7.75 29 7.75 29 10 C30.32 10 31.64 10 33 10 C33 10.66 33 11.32 33 12 C32.34 12 31.68 12 31 12 C31.495 16.95 31.495 16.95 32 22 C31.34 22 30.68 22 30 22 C29.95875 23.258125 29.9175 24.51625 29.875 25.8125 C29.609375 28.015625 29.609375 28.015625 29 30 C26.125 32.0625 26.125 32.0625 23 33 C21.515 32.505 21.515 32.505 20 32 C20.94875 31.4225 21.8975 30.845 22.875 30.25 C25.94795665 28.03747121 26.72824041 27.37136269 28 24 C28.68422144 18.73308612 28.59059434 14.29476452 26.375 9.4375 C21.51657652 4.45122327 15.19218338 4.6272621 8.625 4.375 C5.77875 4.25125 2.9325 4.1275 0 4 C0 13.57 0 23.14 0 33 C6.27 33 12.54 33 19 33 C19.33 33.66 19.66 34.32 20 35 C13.07 35 6.14 35 -1 35 C-3.10179203 30.79641595 -2.18585823 25.30263057 -2.18530273 20.67871094 C-2.18748421 18.63976008 -2.20563067 16.60135475 -2.22460938 14.5625 C-2.22654297 13.27601563 -2.22847656 11.98953125 -2.23046875 10.6640625 C-2.23457764 9.48279785 -2.23868652 8.3015332 -2.24291992 7.08447266 C-2.01075286 4.13653428 -1.54396561 2.48059474 0 0 Z " fill="#F7C616" transform="translate(29,130)"/>
<path d="M0 0 C0.33 0 0.66 0 1 0 C1 33 1 66 1 100 C5.62 99.67 10.24 99.34 15 99 C16.65 99.33 18.3 99.66 20 100 C19.99214478 98.50835327 19.99214478 98.50835327 19.98413086 96.98657227 C19.96607959 93.30966079 19.95456754 89.63275325 19.94506836 85.95581055 C19.94002843 84.36205386 19.9331965 82.76830181 19.92456055 81.17456055 C19.91248001 78.88849747 19.90676845 76.60249533 19.90234375 74.31640625 C19.89718246 73.59973282 19.89202118 72.88305939 19.88670349 72.14466858 C19.88650737 70.42936328 19.93807993 68.71418734 20 67 C20.33 66.67 20.66 66.34 21 66 C23.33944736 66.28730055 25.6739143 66.61936779 28 67 C28.33 68.65 28.66 70.3 29 72 C27.35 71.34 25.7 70.68 24 70 C23.67 80.23 23.34 90.46 23 101 C15.41 101 7.82 101 0 101 C0 67.67 0 34.34 0 0 Z " fill="#F2C737" transform="translate(231,137)"/>
<path d="M0 0 C5.62143747 1.12428749 6.79023742 2.66236729 9.8125 7.0625 C10.21919922 7.63033203 10.62589844 8.19816406 11.04492188 8.78320312 C12.04255162 10.17988477 13.02301533 11.58879991 14 13 C14.33 8.71 14.66 4.42 15 0 C16.32 0 17.64 0 19 0 C19 6.93 19 13.86 19 21 C14 21 14 21 11.54296875 18.59375 C10.76566406 17.5728125 9.98835937 16.551875 9.1875 15.5 C8.39730469 14.4790625 7.60710938 13.458125 6.79296875 12.40625 C6.20128906 11.6121875 5.60960937 10.818125 5 10 C4.67 13.63 4.34 17.26 4 21 C2.68 21 1.36 21 0 21 C0 14.07 0 7.14 0 0 Z " fill="#515151" transform="translate(579,205)"/>
<path d="M0 0 C2.35400289 1.93859062 3.25827966 2.83466794 4.125 5.75 C4.78053869 12.6331563 4.78053869 12.6331563 2.4375 16.625 C-1.38177226 20.13460154 -3.663989 20.75 -8.875 20.75 C-12.28946754 20.18738887 -13.05913533 19.59271774 -15.875 17.1875 C-18.46945759 12.72827601 -18.52110621 10.83808639 -17.875 5.75 C-16.63967542 2.90875347 -15.6194561 1.32902141 -13.1875 -0.5625 C-8.49267132 -1.95825988 -4.42976848 -1.9259863 0 0 Z M-13.875 5.75 C-14.50389652 8.54509564 -14.54206307 10.95993621 -13.875 13.75 C-11.85757918 16.01051003 -11.85757918 16.01051003 -8.875 16.75 C-5.72088821 16.62383553 -3.66464658 16.20850447 -0.9375 14.625 C0.84280396 11.48328713 0.02828691 9.12227112 -0.875 5.75 C-3.00308098 3.39391034 -4.24918075 2.84387289 -7.375 2.375 C-10.53783055 2.84942458 -11.79457003 3.28430522 -13.875 5.75 Z " fill="#2C2C2C" transform="translate(560.875,206.25)"/>
<path d="M0 0 C5.75358089 1.15071618 6.37313178 2.0964547 9.8125 6.5625 C10.60269531 7.57441406 11.39289062 8.58632812 12.20703125 9.62890625 C12.79871094 10.41136719 13.39039063 11.19382813 14 12 C14.33 8.04 14.66 4.08 15 0 C15.99 0 16.98 0 18 0 C18 6.93 18 13.86 18 21 C13.32107477 19.83026869 12.33254219 18.51868872 9.25 14.9375 C8.45078125 14.01839844 7.6515625 13.09929687 6.828125 12.15234375 C6.22484375 11.44207031 5.6215625 10.73179687 5 10 C4.67 13.63 4.34 17.26 4 21 C2.68 21 1.36 21 0 21 C0 14.07 0 7.14 0 0 Z " fill="#323233" transform="translate(696,205)"/>
<path d="M0 0 C1.32 0 2.64 0 4 0 C4.33 2.97 4.66 5.94 5 9 C5.51949219 8.3503125 6.03898438 7.700625 6.57421875 7.03125 C7.62029297 5.77828125 7.62029297 5.77828125 8.6875 4.5 C9.37199219 3.6646875 10.05648437 2.829375 10.76171875 1.96875 C13 0 13 0 15.76953125 -0.28125 C16.87361328 -0.14203125 16.87361328 -0.14203125 18 0 C16.44499019 3.81684226 13.96404505 6.19195732 11 9 C12.40205937 13.461098 14.68824198 15.77539351 18 19 C18 19.66 18 20.32 18 21 C15.8125 21.375 15.8125 21.375 13 21 C11.00977164 19.16038352 9.61010101 17.20813852 8 15 C7.01 15.33 6.02 15.66 5 16 C4.67 17.65 4.34 19.3 4 21 C2.68 21 1.36 21 0 21 C0 14.07 0 7.14 0 0 Z " fill="#101213" transform="translate(731,205)"/>
<path d="M0 0 C1.32 0 2.64 0 4 0 C5.4807848 2.9615696 5.35314037 5.83506295 5.5625 9.125 C5.64628906 10.40632812 5.73007812 11.68765625 5.81640625 13.0078125 C5.90728516 14.48894531 5.90728516 14.48894531 6 16 C9.47147842 16.74957157 9.47147842 16.74957157 13 17 C13.33 11.39 13.66 5.78 14 0 C15.32 0 16.64 0 18 0 C18.10812003 2.75105422 18.18734945 5.49785087 18.25 8.25 C18.30027344 9.41595703 18.30027344 9.41595703 18.3515625 10.60546875 C18.45023608 16.37787335 18.45023608 16.37787335 16.19921875 19.48828125 C13.09431073 21.62256083 10.74578842 21.93428441 7 22 C3.85526046 20.74210418 2.44450804 19.85056383 0.87109375 16.83984375 C-0.20190526 13.34177074 -0.19327672 10.34030454 -0.125 6.6875 C-0.10695313 5.43324219 -0.08890625 4.17898437 -0.0703125 2.88671875 C-0.03550781 1.45779297 -0.03550781 1.45779297 0 0 Z " fill="#6D6D6D" transform="translate(404,205)"/>
<path d="M0 0 C0.680625 0.00644531 1.36125 0.01289063 2.0625 0.01953125 C4 0.1875 4 0.1875 7 1.1875 C7 2.5075 7 3.8275 7 5.1875 C3.7 5.1875 0.4 5.1875 -3 5.1875 C-3.33 6.1775 -3.66 7.1675 -4 8.1875 C-3.30132812 8.38085938 -2.60265625 8.57421875 -1.8828125 8.7734375 C-0.97273438 9.03382813 -0.06265625 9.29421875 0.875 9.5625 C1.77992188 9.81773437 2.68484375 10.07296875 3.6171875 10.3359375 C6 11.1875 6 11.1875 8 13.1875 C7.625 16.8125 7.625 16.8125 7 20.1875 C2.29258468 22.68831439 -0.92132906 22.17046857 -6 21.1875 C-6.99 20.5275 -7.98 19.8675 -9 19.1875 C-8.505 17.7025 -8.505 17.7025 -8 16.1875 C-7.30132812 16.2596875 -6.60265625 16.331875 -5.8828125 16.40625 C-4.51769531 16.54546875 -4.51769531 16.54546875 -3.125 16.6875 C-1.76761719 16.82671875 -1.76761719 16.82671875 -0.3828125 16.96875 C1.93313211 17.21797295 1.93313211 17.21797295 4 17.1875 C3.19774662 14.99973374 3.19774662 14.99973374 1.0390625 14.51171875 C0.24242187 14.30160156 -0.55421875 14.09148437 -1.375 13.875 C-4.61363167 12.84710893 -5.82915271 12.37299134 -8.1875 9.8125 C-9 7.1875 -9 7.1875 -8.375 4.5 C-6.2081808 0.85580407 -4.06221686 -0.08462952 0 0 Z " fill="#555555" transform="translate(475,204.8125)"/>
<path d="M0 0 C1.32 0 2.64 0 4 0 C5.50626117 3.12202006 7.00393243 6.24808399 8.5 9.375 C8.92925781 10.26445312 9.35851562 11.15390625 9.80078125 12.0703125 C10.40986328 13.34648437 10.40986328 13.34648437 11.03125 14.6484375 C11.40830078 15.43395996 11.78535156 16.21948242 12.17382812 17.02880859 C13 19 13 19 13 21 C11.35 20.67 9.7 20.34 8 20 C7.67 18.68 7.34 17.36 7 16 C3.7 16 0.4 16 -3 16 C-3.99 18.475 -3.99 18.475 -5 21 C-6.32 21 -7.64 21 -9 21 C-8.38367054 16.04001528 -6.20164371 12.06328034 -3.9375 7.6875 C-3.37192383 6.57665039 -3.37192383 6.57665039 -2.79492188 5.44335938 C-1.86871843 3.62612478 -0.93509371 1.81267596 0 0 Z M1 7 C0.34 8.98 -0.32 10.96 -1 13 C0.98 13 2.96 13 5 13 C3.515 10.03 3.515 10.03 2 7 C1.67 7 1.34 7 1 7 Z " fill="#141414" transform="translate(671,205)"/>
<path d="M0 0 C4.95 0 9.9 0 15 0 C15 1.32 15 2.64 15 4 C11.04 4 7.08 4 3 4 C3 5.65 3 7.3 3 9 C6.63 9 10.26 9 14 9 C14 10.32 14 11.64 14 13 C10.37 13 6.74 13 3 13 C3 14.65 3 16.3 3 18 C7.29 18 11.58 18 16 18 C16 18.99 16 19.98 16 21 C10.72 21 5.44 21 0 21 C0 14.07 0 7.14 0 0 Z " fill="#2A2A2A" transform="translate(438,205)"/>
<path d="M0 0 C-2.71942096 1.46162662 -5.21041115 2.407571 -8.22265625 3.0703125 C-9.40118164 3.33134766 -9.40118164 3.33134766 -10.60351562 3.59765625 C-11.41498047 3.77167969 -12.22644531 3.94570312 -13.0625 4.125 C-14.28549805 4.39763672 -14.28549805 4.39763672 -15.53320312 4.67578125 C-18.78253751 5.38598909 -21.66079974 6 -25 6 C-24.99476318 6.81267334 -24.98952637 7.62534668 -24.98413086 8.46264648 C-24.96343006 12.12092322 -24.95036197 15.77918767 -24.9375 19.4375 C-24.92912109 20.71689453 -24.92074219 21.99628906 -24.91210938 23.31445312 C-24.90888672 24.52939453 -24.90566406 25.74433594 -24.90234375 26.99609375 C-24.89710693 28.12200928 -24.89187012 29.2479248 -24.88647461 30.40795898 C-25 33 -25 33 -26 34 C-33.88681228 33.87369213 -41.58123806 32.19448654 -49.25 30.5 C-58.57473192 28.46516573 -58.57473192 28.46516573 -68 27 C-68 26.67 -68 26.34 -68 26 C-60.93408521 25.80874216 -54.76668248 25.74443917 -48 28 C-46.21492133 28.40520191 -44.42219814 28.7774755 -42.625 29.125 C-41.77164063 29.29257813 -40.91828125 29.46015625 -40.0390625 29.6328125 C-36.05316346 30.11439927 -32.01488692 30 -28 30 C-28 21.42 -28 12.84 -28 4 C-24.7 4 -21.4 4 -18 4 C-18 3.34 -18 2.68 -18 2 C-12.8679042 -0.5660479 -5.62150562 -0.14793436 0 0 Z " fill="#F5C72C" transform="translate(256,78)"/>
<path d="M0 0 C1.79323253 0.28187936 3.58457126 0.5758281 5.375 0.875 C6.37273437 1.03742187 7.37046875 1.19984375 8.3984375 1.3671875 C11 2 11 2 13 4 C12.625 6.625 12.625 6.625 12 9 C7.76500802 10.14249828 3.52915943 11.28174652 -0.70751953 12.41796875 C-2.14916689 12.8050928 -3.59057482 13.19310962 -5.03173828 13.58203125 C-7.10126699 14.14036246 -9.1716308 14.69549498 -11.2421875 15.25 C-12.4885498 15.58515625 -13.73491211 15.9203125 -15.01904297 16.265625 C-18 17 -18 17 -20 17 C-20 32.18 -20 47.36 -20 63 C-20.33 63 -20.66 63 -21 63 C-21.05069859 56.37975331 -21.08573295 49.75955666 -21.10986328 43.13916016 C-21.11992253 40.88686248 -21.13357146 38.63457786 -21.15087891 36.38232422 C-21.17513031 33.14547502 -21.1864839 29.90879845 -21.1953125 26.671875 C-21.20563507 25.66445251 -21.21595764 24.65703003 -21.22659302 23.61907959 C-21.22674408 22.67840637 -21.22689514 21.73773315 -21.22705078 20.76855469 C-21.231492 19.94248718 -21.23593323 19.11641968 -21.24050903 18.26531982 C-20.97643263 15.77802236 -20.24570507 14.15066625 -19 12 C-17.865625 12.020625 -16.73125 12.04125 -15.5625 12.0625 C-12.18424326 12.41577477 -12.18424326 12.41577477 -11 11 C-9.989375 10.87625 -8.97875 10.7525 -7.9375 10.625 C-3.57585185 9.9326749 -0.08371189 8.64781357 4 7 C4 5.68 4 4.36 4 3 C2.07977297 1.22590192 2.07977297 1.22590192 0 0 Z " fill="#F0CB48" transform="translate(283,60)"/>
<path d="M0 0 C0.33 0 0.66 0 1 0 C1.02554325 6.49209749 1.04294734 12.98418181 1.05493164 19.47631836 C1.05993255 21.68075037 1.06673542 23.88517911 1.07543945 26.08959961 C1.08769217 29.27458508 1.09327089 32.45952635 1.09765625 35.64453125 C1.10281754 36.61582474 1.10797882 37.58711823 1.11329651 38.58784485 C1.11382045 45.10941083 0.69558824 51.51620668 0 58 C1.98 58 3.96 58 6 58 C6.33 54.04 6.66 50.08 7 46 C7.33 46 7.66 46 8 46 C8 49.96 8 53.92 8 58 C10.475 57.505 10.475 57.505 13 57 C14.99839247 56.90964715 16.99957253 56.86989687 19 56.875 C20.010625 56.87242187 21.02125 56.86984375 22.0625 56.8671875 C24.81714744 56.99173273 27.31838803 57.37889135 30 58 C30 58.33 30 58.66 30 59 C28.04707031 59.09087891 28.04707031 59.09087891 26.0546875 59.18359375 C24.32811601 59.26804562 22.601554 59.35269126 20.875 59.4375 C20.0190625 59.47681641 19.163125 59.51613281 18.28125 59.55664062 C9.96106824 59.47658667 9.96106824 59.47658667 3 63 C0.53199953 61.84826645 -1.04783565 60.95216435 -3 59 C-3.1953125 56.1796875 -3.1953125 56.1796875 -3.125 52.875 C-3.10695312 51.77929688 -3.08890625 50.68359375 -3.0703125 49.5546875 C-3.04710937 48.71164063 -3.02390625 47.86859375 -3 47 C-1.515 46.505 -1.515 46.505 0 46 C0 30.82 0 15.64 0 0 Z " fill="#F4CB48" transform="translate(257,78)"/>
<path d="M0 0 C0 0.33 0 0.66 0 1 C-1.9173999 0.97643433 -1.9173999 0.97643433 -3.87353516 0.95239258 C-8.73056438 0.89705846 -13.5875675 0.86328387 -18.44482422 0.83520508 C-20.52560141 0.82034923 -22.60634868 0.80005905 -24.68701172 0.77368164 C-44.6630941 0.52724231 -63.58008718 2.72877742 -83.03125 7.23046875 C-86.39838249 7.9589967 -89.54451885 8.15855847 -93 8 C-89.85348016 6.27352474 -86.78450673 5.32288489 -83.3125 4.4375 C-79.8625338 3.77403396 -79.8625338 3.77403396 -77 2 C-75.26644813 1.71211094 -73.52290243 1.48399884 -71.77734375 1.28125 C-70.689375 1.15403564 -69.60140625 1.02682129 -68.48046875 0.89575195 C-66.72669922 0.69985474 -66.72669922 0.69985474 -64.9375 0.5 C-63.15472656 0.2992688 -63.15472656 0.2992688 -61.3359375 0.09448242 C-40.66235217 -2.1818053 -20.61531984 -2.92267826 0 0 Z " fill="#F1D160" transform="translate(186,103)"/>
<path d="M0 0 C5.94 0 11.88 0 18 0 C18 1.32 18 2.64 18 4 C15.69 4 13.38 4 11 4 C11 9.61 11 15.22 11 21 C9.68 21 8.36 21 7 21 C7 15.39 7 9.78 7 4 C4.69 4 2.38 4 0 4 C0 2.68 0 1.36 0 0 Z " fill="#929292" transform="translate(494,205)"/>
<path d="M0 0 C2.48971237 2.23362767 3.79842208 4.31446983 5.125 7.375 C5.45757812 8.12523437 5.79015625 8.87546875 6.1328125 9.6484375 C9.60288135 19.05826383 9.02527625 30.52574102 5.94921875 39.94921875 C4.89398984 42.22903429 3.57282999 44.04828099 2 46 C2 43.69 2 41.38 2 39 C2.66 39 3.32 39 4 39 C3.91621094 38.36191406 3.83242188 37.72382813 3.74609375 37.06640625 C3.59333984 35.82697266 3.59333984 35.82697266 3.4375 34.5625 C3.28087891 33.32693359 3.28087891 33.32693359 3.12109375 32.06640625 C3.08113281 31.38449219 3.04117187 30.70257813 3 30 C3.33 29.67 3.66 29.34 4 29 C4.12717273 26.05136708 4.18521566 23.13657732 4.1875 20.1875 C4.19974609 19.36701172 4.21199219 18.54652344 4.22460938 17.70117188 C4.22654297 16.90646484 4.22847656 16.11175781 4.23046875 15.29296875 C4.23663208 14.20278442 4.23663208 14.20278442 4.24291992 13.09057617 C3.96070685 10.66184198 3.28324926 9.07311471 2 7 C1.34 6.67 0.68 6.34 0 6 C0 4.02 0 2.04 0 0 Z " fill="#F5C93A" transform="translate(305,149)"/>
<path d="M0 0 C3.3 0.66 6.6 1.32 10 2 C10 2.33 10 2.66 10 3 C6.7 3.33 3.4 3.66 0 4 C0 13.57 0 23.14 0 33 C6.27 33 12.54 33 19 33 C19.33 33.66 19.66 34.32 20 35 C13.07 35 6.14 35 -1 35 C-3.10179203 30.79641595 -2.18585823 25.30263057 -2.18530273 20.67871094 C-2.18748421 18.63976008 -2.20563067 16.60135475 -2.22460938 14.5625 C-2.22654297 13.27601563 -2.22847656 11.98953125 -2.23046875 10.6640625 C-2.23457764 9.48279785 -2.23868652 8.3015332 -2.24291992 7.08447266 C-2 4 -2 4 0 0 Z " fill="#ECC443" transform="translate(29,130)"/>
<path d="M0 0 C1.32 0 2.64 0 4 0 C4 6.93 4 13.86 4 21 C2.35 21 0.7 21 -1 21 C-2.58203125 19.3203125 -2.58203125 19.3203125 -3.8125 17.125 C-4.23144531 16.40570313 -4.65039062 15.68640625 -5.08203125 14.9453125 C-6 13 -6 13 -6 11 C-3.525 11.99 -3.525 11.99 -1 13 C-0.67 8.71 -0.34 4.42 0 0 Z " fill="#494949" transform="translate(594,205)"/>
<path d="M0 0 C0 3.11227195 -0.45627049 5.94152152 -1 9 C-1.66 9 -2.32 9 -3 9 C-2.79375 9.78375 -2.5875 10.5675 -2.375 11.375 C-2.25125 12.24125 -2.1275 13.1075 -2 14 C-2.66 14.66 -3.32 15.32 -4 16 C-4.29316768 18.01745179 -4.29316768 18.01745179 -4.23046875 20.31640625 C-4.22853516 21.16267578 -4.22660156 22.00894531 -4.22460938 22.88085938 C-4.21236328 23.76580078 -4.20011719 24.65074219 -4.1875 25.5625 C-4.1865332 26.89571289 -4.1865332 26.89571289 -4.18554688 28.25585938 C-4.53382754 32.45633191 -4.53382754 32.45633191 -3 36 C-2.95907063 38.33297433 -2.95758277 40.66705225 -3 43 C-7.76130605 37.29947741 -8.45573056 29.68282905 -8.25 22.41796875 C-7.36655959 13.87344354 -4.96614229 6.97944322 0 0 Z " fill="#F2C839" transform="translate(150,149)"/>
<path d="M0 0 C-1.13989258 1.97558594 -1.13989258 1.97558594 -3 4 C-5.63549805 4.45410156 -5.63549805 4.45410156 -8.76171875 4.390625 C-9.87998047 4.37773438 -10.99824219 4.36484375 -12.15039062 4.3515625 C-13.31763672 4.31804687 -14.48488281 4.28453125 -15.6875 4.25 C-16.86634766 4.23195313 -18.04519531 4.21390625 -19.25976562 4.1953125 C-22.17398926 4.14811859 -25.08659031 4.08229077 -28 4 C-28 3.67 -28 3.34 -28 3 C-34.93 3 -41.86 3 -49 3 C-49 2.67 -49 2.34 -49 2 C-44.23920269 0.84380637 -39.49865074 0.6575304 -34.625 0.4375 C-33.72048096 0.3950415 -32.81596191 0.35258301 -31.8840332 0.30883789 C-21.25860509 -0.14247719 -10.63250035 -0.09489393 0 0 Z " fill="#F6C733" transform="translate(175,74)"/>
<path d="M0 0 C7.36196319 -0.49079755 7.36196319 -0.49079755 10.4375 1.875 C13.28691516 5.75020462 13.67886511 9.2750988 13 14 C11.20636089 16.8100346 9.98119065 18.50940468 7 20 C4.6670134 20.04022391 2.33293334 20.04320247 0 20 C-0.33 19.34 -0.66 18.68 -1 18 C0.65 18 2.3 18 4 18 C4 17.34 4 16.68 4 16 C5.2684375 15.1646875 5.2684375 15.1646875 6.5625 14.3125 C7.366875 13.549375 8.17125 12.78625 9 12 C9.1716367 8.36760187 9.1716367 8.36760187 8 5 C4.81237635 2.87491756 2.73487777 2.4979837 -1 2 C-0.67 1.34 -0.34 0.68 0 0 Z " fill="#3B3B3B" transform="translate(552,206)"/>
<path d="M0 0 C0.99 0 1.98 0 3 0 C3 0.99 3 1.98 3 3 C3.66 3 4.32 3 5 3 C5.495 5.97 5.495 5.97 6 9 C-5.55 9 -17.1 9 -29 9 C-29 8.34 -29 7.68 -29 7 C-18.44 6.67 -7.88 6.34 3 6 C2.01 4.68 1.02 3.36 0 2 C0 1.34 0 0.68 0 0 Z " fill="#FAE45B" transform="translate(196,158)"/>
<path d="M0 0 C2 3 2 3 3 6 C3.66 5.38125 4.32 4.7625 5 4.125 C12.93372743 -1.4947236 22.72083212 -0.20270027 32 0 C31.67 0.66 31.34 1.32 31 2 C29.98679688 1.96519531 29.98679688 1.96519531 28.953125 1.9296875 C28.06109375 1.91164062 27.1690625 1.89359375 26.25 1.875 C24.92742187 1.84019531 24.92742187 1.84019531 23.578125 1.8046875 C20.8864142 2.00860498 19.30095026 2.63448279 17 4 C17 4.33 17 4.66 17 5 C13.28400809 5.20086443 12.22791555 5.1519437 9 3 C9 3.99 9 4.98 9 6 C8.01 6 7.02 6 6 6 C5.5978125 7.2065625 5.5978125 7.2065625 5.1875 8.4375 C4.795625 9.283125 4.40375 10.12875 4 11 C3.01 11.33 2.02 11.66 1 12 C0.67 8.04 0.34 4.08 0 0 Z " fill="#F6C72B" transform="translate(107,137)"/>
<path d="M0 0 C1.32 0 2.64 0 4 0 C4 6.93 4 13.86 4 21 C2.68 21 1.36 21 0 21 C0 14.07 0 7.14 0 0 Z " fill="#7B7B7B" transform="translate(524,205)"/>
<path d="M0 0 C1.32 0 2.64 0 4 0 C3.67 3.63 3.34 7.26 3 11 C3.66 11 4.32 11 5 11 C6.46726798 14.81489674 5.43336419 17.29011622 4 21 C2.68 21 1.36 21 0 21 C0 14.07 0 7.14 0 0 Z " fill="#101010" transform="translate(731,205)"/>
<path d="M0 0 C0.66 0.33 1.32 0.66 2 1 C1.34 1.66 0.68 2.32 0 3 C-0.99 3 -1.98 3 -3 3 C-3 8.94 -3 14.88 -3 21 C-1.68 20.67 -0.36 20.34 1 20 C5.44954472 18.99867615 9.4517307 18.83460839 14 19 C14 19.33 14 19.66 14 20 C12.58461283 20.33872513 11.16762037 20.67074624 9.75 21 C8.96109375 21.185625 8.1721875 21.37125 7.359375 21.5625 C5 22 5 22 1 22 C1 22.66 1 23.32 1 24 C-0.66611905 24.042721 -2.33382885 24.04063832 -4 24 C-5 23 -5 23 -5.11352539 20.95874023 C-5.10828857 20.08419189 -5.10305176 19.20964355 -5.09765625 18.30859375 C-5.09443359 17.36435547 -5.09121094 16.42011719 -5.08789062 15.44726562 C-5.07951172 14.45404297 -5.07113281 13.46082031 -5.0625 12.4375 C-5.05798828 11.44041016 -5.05347656 10.44332031 -5.04882812 9.41601562 C-5.03700007 6.94395151 -5.02051849 4.47200482 -5 2 C-2.625 0.9375 -2.625 0.9375 0 0 Z " fill="#F0C636" transform="translate(92,88)"/>
<path d="M0 0 C1.02802734 0.00966797 2.05605469 0.01933594 3.11523438 0.02929688 C4.72301758 0.06700195 4.72301758 0.06700195 6.36328125 0.10546875 C7.44673828 0.11900391 8.53019531 0.13253906 9.64648438 0.14648438 C12.3234153 0.18186232 14.99934963 0.23122686 17.67578125 0.29296875 C16.78815102 5.09031655 15.20091329 8.13871927 12.67578125 12.29296875 C12.34578125 12.29296875 12.01578125 12.29296875 11.67578125 12.29296875 C11.48828125 9.98046875 11.48828125 9.98046875 11.67578125 7.29296875 C13.11328125 5.60546875 13.11328125 5.60546875 14.67578125 4.29296875 C15.00578125 3.63296875 15.33578125 2.97296875 15.67578125 2.29296875 C12.77916645 2.40726923 9.88399809 2.53401115 6.98828125 2.66796875 C6.17166016 2.69890625 5.35503906 2.72984375 4.51367188 2.76171875 C0.22513405 2.97006877 -3.47686181 3.18337264 -7.32421875 5.29296875 C-7.65421875 5.95296875 -7.98421875 6.61296875 -8.32421875 7.29296875 C-8.98421875 7.29296875 -9.64421875 7.29296875 -10.32421875 7.29296875 C-7.90561724 1.89762692 -6.07590205 -0.10070556 0 0 Z " fill="#F2CE48" transform="translate(203.32421875,185.70703125)"/>
<path d="M0 0 C0 0.99 0 1.98 0 3 C-0.94101563 3.03738281 -1.88203125 3.07476562 -2.8515625 3.11328125 C-4.71941406 3.21189453 -4.71941406 3.21189453 -6.625 3.3125 C-8.46964844 3.39951172 -8.46964844 3.39951172 -10.3515625 3.48828125 C-16.19452626 4.30779758 -20.14061388 6.589273 -24 11 C-24.66 11.99 -25.32 12.98 -26 14 C-25.67 11.03 -25.34 8.06 -25 5 C-16.40385448 1.48624709 -9.41642046 -0.86477331 0 0 Z " fill="#F6CF49" transform="translate(139,155)"/>
<path d="M0 0 C10.69667293 0.95506008 17.55790819 3.98543959 25 12 C26.82421875 14.5703125 26.82421875 14.5703125 28 17 C27.67 17.99 27.34 18.98 27 20 C26.9175 19.38125 26.835 18.7625 26.75 18.125 C26.20746992 15.85973865 26.20746992 15.85973865 24.1875 14.9375 C23.465625 14.628125 22.74375 14.31875 22 14 C19.75 12.5 19.75 12.5 18 11 C18 10.34 18 9.68 18 9 C16.68 8.67 15.36 8.34 14 8 C14 7.01 14 6.02 14 5 C13.40832031 4.87882813 12.81664062 4.75765625 12.20703125 4.6328125 C7.96196415 3.73255357 3.97560339 2.79543379 0 1 C0 0.67 0 0.34 0 0 Z " fill="#F6D359" transform="translate(190,136)"/>
<path d="M0 0 C2 1.1875 2 1.1875 4 3 C4.50262362 5.87213496 4.37604008 7.33639987 2.9375 9.875 C-0.14564808 11.66521501 -2.60520603 10.70237117 -6 10 C-6.969375 9.814375 -7.93875 9.62875 -8.9375 9.4375 C-9.9584375 9.2209375 -9.9584375 9.2209375 -11 9 C-11 8.67 -11 8.34 -11 8 C-7.7 7.34 -4.4 6.68 -1 6 C-1.33 5.34 -1.66 4.68 -2 4 C-4.12576782 3.53348793 -4.12576782 3.53348793 -6.5625 3.375 C-7.38878906 3.30023438 -8.21507812 3.22546875 -9.06640625 3.1484375 C-9.70449219 3.09945312 -10.34257813 3.05046875 -11 3 C-11 2.67 -11 2.34 -11 2 C-7.37 2 -3.74 2 0 2 C0 1.34 0 0.68 0 0 Z " fill="#5A5A5A" transform="translate(647,215)"/>
<path d="M0 0 C1.32 0 2.64 0 4 0 C4 5.61 4 11.22 4 17 C3.01 17 2.02 17 1 17 C0.01 17.66 -0.98 18.32 -2 19 C-2.33 18.34 -2.66 17.68 -3 17 C-2.34 17 -1.68 17 -1 17 C-0.67 11.39 -0.34 5.78 0 0 Z " fill="#565656" transform="translate(418,205)"/>
<path d="M0 0 C5.28 0 10.56 0 16 0 C16 0.66 16 1.32 16 2 C13.69 2 11.38 2 9 2 C9 7.94 9 13.88 9 20 C8.01 20 7.02 20 6 20 C6.495 11.09 6.495 11.09 7 2 C4.69 2 2.38 2 0 2 C0 1.34 0 0.68 0 0 Z " fill="#080808" transform="translate(495,206)"/>
<path d="M0 0 C14.74845349 3.34908464 29.37160061 7.16463321 44 11 C44 11.33 44 11.66 44 12 C40.04 11.67 36.08 11.34 32 11 C32 10.34 32 9.68 32 9 C31.34773438 9.03480469 30.69546875 9.06960937 30.0234375 9.10546875 C29.14945313 9.13253906 28.27546875 9.15960938 27.375 9.1875 C26.51648438 9.22230469 25.65796875 9.25710937 24.7734375 9.29296875 C21.33205936 8.92944289 19.07247949 7.57621624 16 6 C12.71963399 5.06036407 9.44574341 4.2344693 6.12695312 3.45117188 C4.4031544 3.02322982 2.69906992 2.51747259 1 2 C0.67 1.34 0.34 0.68 0 0 Z " fill="#F6CD4D" transform="translate(180,34)"/>
<path d="M0 0 C-0.33 1.32 -0.66 2.64 -1 4 C-1.66 4 -2.32 4 -3 4 C-3 4.66 -3 5.32 -3 6 C-1.02 5.34 0.96 4.68 3 4 C3 5.32 3 6.64 3 8 C-0.05795121 9.57266062 -1.38335279 10.18219122 -4.75 9.1875 C-7 8 -7 8 -8 7 C-8.04063832 5.33382885 -8.042721 3.66611905 -8 2 C-2.25 0 -2.25 0 0 0 Z " fill="#0D0D0D" transform="translate(387,221)"/>
<path d="M0 0 C0.33 0 0.66 0 1 0 C1.33 2.64 1.66 5.28 2 8 C2.33 5.69 2.66 3.38 3 1 C3.99 1 4.98 1 6 1 C5.67 1.33 5.34 1.66 5 2 C4.92851801 3.35243917 4.91600546 4.70834367 4.9375 6.0625 C4.958125 7.361875 4.97875 8.66125 5 10 C6.98 10.66 8.96 11.32 11 12 C11 13.32 11 14.64 11 16 C7.53989064 15.20151322 4.59835996 14.36822152 1.5625 12.5 C-0.90000138 8.55999779 -0.3108552 4.52467012 0 0 Z " fill="#515151" transform="translate(368,211)"/>
<path d="M0 0 C5.88292551 4.38335626 9.66482548 8.9336646 12 16 C11.67 16.99 11.34 17.98 11 19 C10.67 19 10.34 19 10 19 C10 17.35 10 15.7 10 14 C9.01 14 8.02 14 7 14 C7 13.34 7 12.68 7 12 C6.34 12 5.68 12 5 12 C4.67 10.68 4.34 9.36 4 8 C3.34 8 2.68 8 2 8 C0.23537317 4.91190305 0 3.76687864 0 0 Z " fill="#F5D45A" transform="translate(70,120)"/>
<path d="M0 0 C0 0.33 0 0.66 0 1 C-2.47960136 0.85975781 -4.95852402 0.7130815 -7.4375 0.5625 C-8.14455078 0.52318359 -8.85160156 0.48386719 -9.58007812 0.44335938 C-14.88671875 0.11328125 -14.88671875 0.11328125 -16 -1 C-21.6047709 -1.21326403 -21.6047709 -1.21326403 -27 0 C-28.39439664 0.06665376 -29.79169875 0.08538199 -31.1875 0.0625 C-33.0746875 0.0315625 -33.0746875 0.0315625 -35 0 C-24.39718289 -7.06854474 -11.30869424 -3.08948863 0 0 Z " fill="#F5D86E" transform="translate(179,33)"/>
<path d="M0 0 C1.65 0 3.3 0 5 0 C0.31770583 5.12263531 -5.58305887 6.98049309 -12.4140625 7.32421875 C-14.00497319 7.3563864 -15.59626513 7.37321556 -17.1875 7.375 C-17.94748291 7.37653076 -18.70746582 7.37806152 -19.49047852 7.37963867 C-24.32516434 7.28531619 -28.40979774 6.51993452 -33 5 C-30.66634746 4.22211582 -29.21892641 3.95482471 -26.78515625 4.45703125 C-18.58022292 6.05659048 -10.40911578 5.95152842 -3 2 C-2.01 2 -1.02 2 0 2 C0 1.34 0 0.68 0 0 Z " fill="#F6D059" transform="translate(293,205)"/>
<path d="M0 0 C4.95 0 9.9 0 15 0 C15 1.32 15 2.64 15 4 C10.05 4.33 5.1 4.66 0 5 C0 3.35 0 1.7 0 0 Z " fill="#515151" transform="translate(438,205)"/>
<path d="M0 0 C1.32 0 2.64 0 4 0 C4.05398987 2.27057377 4.09278742 4.54151288 4.125 6.8125 C4.14820313 8.07707031 4.17140625 9.34164062 4.1953125 10.64453125 C4 14 4 14 2 17 C2 16.01 2 15.02 2 14 C1.34 14 0.68 14 0 14 C0 9.38 0 4.76 0 0 Z " fill="#171717" transform="translate(404,205)"/>
<path d="M0 0 C1.32 0 2.64 0 4 0 C4.83819158 1.62249941 5.6704116 3.24808497 6.5 4.875 C6.9640625 5.77992188 7.428125 6.68484375 7.90625 7.6171875 C9 10 9 10 9 12 C8.34 12 7.68 12 7 12 C6.67 11.34 6.34 10.68 6 10 C5.34 10.66 4.68 11.32 4 12 C2.49440461 10.03617993 1.10868317 8.21736634 0 6 C0.66 5.34 1.32 4.68 2 4 C0.68 4.33 -0.64 4.66 -2 5 C-1.34 3.35 -0.68 1.7 0 0 Z " fill="#4E4E4E" transform="translate(671,205)"/>
<path d="M0 0 C4.29 0 8.58 0 13 0 C13 0.66 13 1.32 13 2 C13.67546875 2.13277344 14.3509375 2.26554687 15.046875 2.40234375 C15.93890625 2.57894531 16.8309375 2.75554687 17.75 2.9375 C18.63171875 3.11152344 19.5134375 3.28554687 20.421875 3.46484375 C22.63235053 3.92368488 24.81512068 4.43336074 27 5 C27 5.66 27 6.32 27 7 C20.79786153 6.37547911 15.00570586 5.0842258 9 3.4375 C8.12988281 3.20353516 7.25976562 2.96957031 6.36328125 2.72851562 C4.24085272 2.15709256 2.11986406 1.58085043 0 1 C0 0.67 0 0.34 0 0 Z " fill="#F4D25A" transform="translate(50,75)"/>
<path d="M0 0 C0.79921875 0.02707031 1.5984375 0.05414063 2.421875 0.08203125 C3.02515625 0.11683594 3.6284375 0.15164062 4.25 0.1875 C4.25 0.8475 4.25 1.5075 4.25 2.1875 C2.27 2.1875 0.29 2.1875 -1.75 2.1875 C-2.08 3.1775 -2.41 4.1675 -2.75 5.1875 C-3.74 5.5175 -4.73 5.8475 -5.75 6.1875 C-5.87375 7.321875 -5.9975 8.45625 -6.125 9.625 C-6.33125 10.800625 -6.5375 11.97625 -6.75 13.1875 C-7.74 13.6825 -7.74 13.6825 -8.75 14.1875 C-8.85815225 12.41800905 -8.93566083 10.64662513 -9 8.875 C-9.04640625 7.88886719 -9.0928125 6.90273437 -9.140625 5.88671875 C-8.75 3.1875 -8.75 3.1875 -7.03125 1.34375 C-4.44208133 0.03143163 -2.88024555 -0.12706966 0 0 Z " fill="#2A2A2A" transform="translate(377.75,205.8125)"/>
<path d="M0 0 C3.3 0.66 6.6 1.32 10 2 C10 2.33 10 2.66 10 3 C6.7 3.33 3.4 3.66 0 4 C-0.33 13.57 -0.66 23.14 -1 33 C-1.33 33 -1.66 33 -2 33 C-2.04954711 28.94323508 -2.085789 24.88658806 -2.10986328 20.82958984 C-2.11990253 19.45032685 -2.13353677 18.07108504 -2.15087891 16.69189453 C-2.17521754 14.7061486 -2.18543255 12.7202455 -2.1953125 10.734375 C-2.20578613 9.54038086 -2.21625977 8.34638672 -2.22705078 7.11621094 C-2 4 -2 4 0 0 Z " fill="#F2C527" transform="translate(29,130)"/>
<path d="M0 0 C7.06591479 -0.19125784 13.23331752 -0.25556083 20 2 C23.65450304 2.73788056 27.32461794 3.37525151 31 4 C31 4.66 31 5.32 31 6 C24.28415883 5.23316717 17.65478858 4.1160389 11 2.9375 C9.93910156 2.75123047 8.87820312 2.56496094 7.78515625 2.37304688 C5.18979262 1.91710462 2.59475665 1.45938174 0 1 C0 0.67 0 0.34 0 0 Z " fill="#F1D55F" transform="translate(188,104)"/>
<path d="M0 0 C3.63 0.66 7.26 1.32 11 2 C11 3.98 11 5.96 11 8 C8.24921116 8.91692961 6.64051087 9.10886083 3.8125 9.0625 C1.9253125 9.0315625 1.9253125 9.0315625 0 9 C1.32 8.34 2.64 7.68 4 7 C4 5.68 4 4.36 4 3 C2.68 2.01 1.36 1.02 0 0 Z " fill="#F8CA37" transform="translate(283,60)"/>
<path d="M0 0 C1.32 0.33 2.64 0.66 4 1 C4.33 3.31 4.66 5.62 5 8 C4.01 8.495 4.01 8.495 3 9 C2.67 8.34 2.34 7.68 2 7 C1.34 7.66 0.68 8.32 0 9 C-2.1640625 9.1953125 -2.1640625 9.1953125 -4.625 9.125 C-5.44226563 9.10695312 -6.25953125 9.08890625 -7.1015625 9.0703125 C-7.72804688 9.04710937 -8.35453125 9.02390625 -9 9 C-9 8.67 -9 8.34 -9 8 C-6.36 7.67 -3.72 7.34 -1 7 C-1 6.01 -1 5.02 -1 4 C-3.64 3.67 -6.28 3.34 -9 3 C-9 2.67 -9 2.34 -9 2 C-4.545 1.505 -4.545 1.505 0 1 C0 0.67 0 0.34 0 0 Z " fill="#5E5E5E" transform="translate(645,206)"/>
<path d="M0 0 C-5.27188165 4.14219273 -8.42148627 5.25145396 -15.25 5.125 C-16.51328125 5.10695312 -17.7765625 5.08890625 -19.078125 5.0703125 C-20.04234375 5.04710937 -21.0065625 5.02390625 -22 5 C-21.67 4.01 -21.34 3.02 -21 2 C-14.07 2.495 -14.07 2.495 -7 3 C-7 2.34 -7 1.68 -7 1 C-4.53721199 -0.231394 -2.7204945 -0.07159196 0 0 Z " fill="#F9C413" transform="translate(70,176)"/>
<path d="M0 0 C0 0.66 0 1.32 0 2 C-2.31 2 -4.62 2 -7 2 C-7 2.66 -7 3.32 -7 4 C-14.72977447 6.45947369 -22.8613069 8.20868444 -31 8 C-26.11879387 5.35244521 -20.84622839 4.25275799 -15.5 2.875 C-14.45457031 2.59785156 -13.40914062 2.32070313 -12.33203125 2.03515625 C-11.32527344 1.77347656 -10.31851563 1.51179688 -9.28125 1.2421875 C-8.36408203 1.0035498 -7.44691406 0.76491211 -6.50195312 0.51904297 C-4 0 -4 0 0 0 Z " fill="#F5C933" transform="translate(90,47)"/>
<path d="M0 0 C0.99 0 1.98 0 3 0 C3 5.28 3 10.56 3 16 C2.01 15.34 1.02 14.68 0 14 C-0.29296875 10.7421875 -0.29296875 10.7421875 -0.1875 6.875 C-0.16042969 5.59367188 -0.13335938 4.31234375 -0.10546875 2.9921875 C-0.07066406 2.00476563 -0.03585937 1.01734375 0 0 Z M-1 15 C-0.34 15 0.32 15 1 15 C0.67 15.66 0.34 16.32 0 17 C-0.33 16.34 -0.66 15.68 -1 15 Z " fill="#1B1B1B" transform="translate(711,205)"/>
<path d="M0 0 C0.99 0.33 1.98 0.66 3 1 C3 1.66 3 2.32 3 3 C3.99 3 4.98 3 6 3 C6 3.66 6 4.32 6 5 C3.525 4.01 3.525 4.01 1 3 C0.67 13.23 0.34 23.46 0 34 C-0.66 33.67 -1.32 33.34 -2 33 C-1.88203546 28.46083081 -1.75780887 23.92189358 -1.62768555 19.38305664 C-1.58428015 17.83785711 -1.54260929 16.29260786 -1.50268555 14.74731445 C-1.44511801 12.53060904 -1.38138576 10.3141552 -1.31640625 8.09765625 C-1.29969376 7.4028566 -1.28298126 6.70805695 -1.26576233 5.99220276 C-1.11387171 1.11387171 -1.11387171 1.11387171 0 0 Z " fill="#F3D25A" transform="translate(254,204)"/>
<path d="M0 0 C1.258125 -0.020625 2.51625 -0.04125 3.8125 -0.0625 C4.52019531 -0.07410156 5.22789062 -0.08570313 5.95703125 -0.09765625 C8 0 8 0 11 1 C11 2.32 11 3.64 11 5 C9.18674449 4.88648483 7.37436643 4.75887039 5.5625 4.625 C4.04849609 4.52058594 4.04849609 4.52058594 2.50390625 4.4140625 C1.67761719 4.27742187 0.85132813 4.14078125 0 4 C-0.33 3.34 -0.66 2.68 -1 2 C-0.67 1.34 -0.34 0.68 0 0 Z " fill="#575757" transform="translate(471,205)"/>
<path d="M0 0 C2.64 0 5.28 0 8 0 C6.86010742 1.97558594 6.86010742 1.97558594 5 4 C2.36450195 4.45410156 2.36450195 4.45410156 -0.76171875 4.390625 C-1.87998047 4.37773438 -2.99824219 4.36484375 -4.15039062 4.3515625 C-5.31763672 4.31804687 -6.48488281 4.28453125 -7.6875 4.25 C-8.86634766 4.23195313 -10.04519531 4.21390625 -11.25976562 4.1953125 C-14.17398926 4.14811859 -17.08659031 4.08229077 -20 4 C-20 3.67 -20 3.34 -20 3 C-13.4 3 -6.8 3 0 3 C0 2.01 0 1.02 0 0 Z " fill="#FBC827" transform="translate(167,74)"/>
<path d="M0 0 C0.66 0.33 1.32 0.66 2 1 C3 4 3 4 2 7 C2.66 7 3.32 7 4 7 C4 7.66 4 8.32 4 9 C4.66 9.33 5.32 9.66 6 10 C3.36 9.67 0.72 9.34 -2 9 C-2.6875 7.3125 -2.6875 7.3125 -3 5 C-1.5625 2.25 -1.5625 2.25 0 0 Z " fill="#555555" transform="translate(469,206)"/>
<path d="M0 0 C-2.9940954 1.0183998 -5.99590078 2.01155445 -9 3 C-10.6396875 3.556875 -10.6396875 3.556875 -12.3125 4.125 C-17.49765019 5.35537462 -22.69085249 5.66872314 -28 6 C-23.80309135 3.2020609 -19.43261972 2.46207096 -14.5625 1.3125 C-13.60794922 1.07466797 -12.65339844 0.83683594 -11.66992188 0.59179688 C-10.74888672 0.37201172 -9.82785156 0.15222656 -8.87890625 -0.07421875 C-8.0391626 -0.27619873 -7.19941895 -0.47817871 -6.33422852 -0.6862793 C-3.89576829 -1.01400876 -2.31870172 -0.76310434 0 0 Z " fill="#F4D76C" transform="translate(57,56)"/>
<path d="M0 0 C2 3 2 3 3 6 C4.98 4.68 6.96 3.36 9 2 C9 3.32 9 4.64 9 6 C8.01 6 7.02 6 6 6 C5.5978125 7.2065625 5.5978125 7.2065625 5.1875 8.4375 C4.795625 9.283125 4.40375 10.12875 4 11 C3.01 11.33 2.02 11.66 1 12 C0.67 8.04 0.34 4.08 0 0 Z " fill="#F5D459" transform="translate(107,137)"/>
<path d="M0 0 C0 0.66 0 1.32 0 2 C-1.051875 2.4125 -2.10375 2.825 -3.1875 3.25 C-6.60743317 4.70587516 -9.12172413 6.63833775 -12 9 C-13.97711651 10.04451438 -15.97250996 11.05698138 -18 12 C-15.52056631 6.15562059 -10.35708975 2.96029582 -4.625 0.625 C-2 0 -2 0 0 0 Z " fill="#F6D255" transform="translate(169,137)"/>
<path d="M0 0 C3.10398978 -0.08710289 6.20766548 -0.14042309 9.3125 -0.1875 C10.19357422 -0.21263672 11.07464844 -0.23777344 11.98242188 -0.26367188 C13.25375977 -0.27817383 13.25375977 -0.27817383 14.55078125 -0.29296875 C15.72120972 -0.31653442 15.72120972 -0.31653442 16.9152832 -0.34057617 C19.53135906 0.08680711 20.4137087 0.91420918 22 3 C22 3.66 22 4.32 22 5 C20.125 5.625 20.125 5.625 18 6 C17.34 5.34 16.68 4.68 16 4 C16 3.01 16 2.02 16 1 C10.72 1 5.44 1 0 1 C0 0.67 0 0.34 0 0 Z " fill="#939594" transform="translate(592,86)"/>
<path d="M0 0 C-3.2018225 1.76176836 -6.33606792 2.73351329 -9.875 3.625 C-10.88304687 3.88539062 -11.89109375 4.14578125 -12.9296875 4.4140625 C-16.0305097 5.00582246 -18.85156869 5.10338133 -22 5 C-20.68 4.67 -19.36 4.34 -18 4 C-18 3.34 -18 2.68 -18 2 C-12.8679042 -0.5660479 -5.62150562 -0.14793436 0 0 Z " fill="#F1D25A" transform="translate(256,78)"/>
<path d="M0 0 C3.55780196 0.60990891 6.6828589 1.5783681 10 3 C10 3.99 10 4.98 10 6 C8.741875 5.87625 7.48375 5.7525 6.1875 5.625 C5.12595703 5.52058594 5.12595703 5.52058594 4.04296875 5.4140625 C2 5 2 5 -1 3 C-0.67 2.01 -0.34 1.02 0 0 Z " fill="#464646" transform="translate(467,221)"/>
<path d="M0 0 C4.29 0 8.58 0 13 0 C13 0.99 13 1.98 13 3 C8.71 3 4.42 3 0 3 C0 2.01 0 1.02 0 0 Z " fill="#5F5F5F" transform="translate(441,223)"/>
<path d="M0 0 C0.33 0 0.66 0 1 0 C1.33 6.27 1.66 12.54 2 19 C1.01 19 0.02 19 -1 19 C-1.02683987 16.02077407 -1.04676037 13.04178705 -1.0625 10.0625 C-1.07087891 9.21236328 -1.07925781 8.36222656 -1.08789062 7.48632812 C-1.09111328 6.67744141 -1.09433594 5.86855469 -1.09765625 5.03515625 C-1.10289307 4.2862915 -1.10812988 3.53742676 -1.11352539 2.76586914 C-1 1 -1 1 0 0 Z " fill="#0E0E0E" transform="translate(526,207)"/>
<path d="M0 0 C6.41975904 1.65952955 11.57608068 3.89328927 16 9 C16 9.66 16 10.32 16 11 C14.68 11 13.36 11 12 11 C12 9.68 12 8.36 12 7 C11.236875 6.896875 10.47375 6.79375 9.6875 6.6875 C6.73421485 5.93200845 6.04132166 5.13007477 4 3 C1.89667109 2.28552357 1.89667109 2.28552357 0 2 C0 1.34 0 0.68 0 0 Z " fill="#F3D35B" transform="translate(288,137)"/>
<path d="M0 0 C0 0.33 0 0.66 0 1 C-1.98 1.33 -3.96 1.66 -6 2 C-4.906875 2.2475 -3.81375 2.495 -2.6875 2.75 C1 4 1 4 2.9375 5.8125 C4.18689961 8.38479331 4.23546771 10.17438742 4 13 C3.7525 12.4225 3.505 11.845 3.25 11.25 C1.7432025 8.53776451 0.48756387 6.88248076 -2 5 C-5.6675213 4.66582071 -5.6675213 4.66582071 -9 5 C-9.33 3.68 -9.66 2.36 -10 1 C-6.78548731 -0.60725635 -3.56387464 -0.05748185 0 0 Z " fill="#898989" transform="translate(558,205)"/>
<path d="M0 0 C2.97 0.495 2.97 0.495 6 1 C6.33 1.99 6.66 2.98 7 4 C7.763125 4.103125 8.52625 4.20625 9.3125 4.3125 C12.18416484 5.04711194 13.23042094 5.6716065 15 8 C15 8.66 15 9.32 15 10 C9.40694142 8.60173536 5.28009079 5.75912508 1 2 C0.67 1.34 0.34 0.68 0 0 Z " fill="#F5CD49" transform="translate(153,200)"/>
<path d="M0 0 C0.99 0.33 1.98 0.66 3 1 C2.0409375 2.485 2.0409375 2.485 1.0625 4 C-0.5898943 6.84095861 -1.31228119 9.10620335 -1.625 12.375 C-1.74875 13.57125 -1.8725 14.7675 -2 16 C-2.66 16.33 -3.32 16.66 -4 17 C-4 13.37 -4 9.74 -4 6 C-3.34 6 -2.68 6 -2 6 C-1.7834375 5.071875 -1.7834375 5.071875 -1.5625 4.125 C-1 2 -1 2 0 0 Z " fill="#F6C62F" transform="translate(255,160)"/>
<path d="M0 0 C5.28 0 10.56 0 16 0 C15.67 1.32 15.34 2.64 15 4 C14.67 3.34 14.34 2.68 14 2 C10.37 2 6.74 2 3 2 C2.34 4.31 1.68 6.62 1 9 C0.67 9 0.34 9 0 9 C0 6.03 0 3.06 0 0 Z " fill="#F8C61D" transform="translate(91,137)"/>
<path d="M0 0 C0.33 0 0.66 0 1 0 C1.33 4.95 1.66 9.9 2 15 C2.66 15 3.32 15 4 15 C4 16.98 4 18.96 4 21 C2.68 21 1.36 21 0 21 C0 14.07 0 7.14 0 0 Z " fill="#404040" transform="translate(731,205)"/>
<path d="M0 0 C0 3 0 3 -1.5625 4.6875 C-4.80631168 6.43416783 -7.37343285 6.20922503 -11 6 C-11.33 5.34 -11.66 4.68 -12 4 C-10.35 4 -8.7 4 -7 4 C-7 3.34 -7 2.68 -7 2 C-4.69 1.34 -2.38 0.68 0 0 Z " fill="#212121" transform="translate(563,220)"/>
<path d="M0 0 C0.66 0.33 1.32 0.66 2 1 C1.67 2.65 1.34 4.3 1 6 C-0.72492978 6.53469802 -2.455198 7.05219175 -4.1875 7.5625 C-5.63189453 7.99755859 -5.63189453 7.99755859 -7.10546875 8.44140625 C-10.12752588 9.02461026 -12.05929955 8.81178385 -15 8 C-14.67 7.34 -14.34 6.68 -14 6 C-10.83984375 5.5859375 -10.83984375 5.5859375 -6.9375 5.375 C-5.64714844 5.30023438 -4.35679687 5.22546875 -3.02734375 5.1484375 C-2.02832031 5.09945312 -1.02929688 5.05046875 0 5 C0 3.35 0 1.7 0 0 Z " fill="#F5D462" transform="translate(294,63)"/>
<path d="M0 0 C0.51046875 0.31710938 1.0209375 0.63421875 1.546875 0.9609375 C4.80214659 2.33976273 7.72843132 2.4293573 11.25 2.625 C13.14492187 2.73714844 13.14492187 2.73714844 15.078125 2.8515625 C16.04234375 2.90054688 17.0065625 2.94953125 18 3 C16 5 16 5 12.7421875 5.1953125 C11.46601563 5.17210937 10.18984375 5.14890625 8.875 5.125 C6.95300781 5.09792969 6.95300781 5.09792969 4.9921875 5.0703125 C3.51105469 5.03550781 3.51105469 5.03550781 2 5 C1.34 3.35 0.68 1.7 0 0 Z " fill="#F6CA42" transform="translate(171,190)"/>
<path d="M0 0 C1.32 0.33 2.64 0.66 4 1 C2.44521347 2.15627814 0.88080281 3.2996219 -0.6875 4.4375 C-1.55761719 5.07558594 -2.42773438 5.71367187 -3.32421875 6.37109375 C-5.98310742 7.98971649 -7.93887169 8.6083962 -11 9 C-11 8.34 -11 7.68 -11 7 C-9.35 6.67 -7.7 6.34 -6 6 C-5.67 5.01 -5.34 4.02 -5 3 C-3.35 2.67 -1.7 2.34 0 2 C0 1.34 0 0.68 0 0 Z " fill="#F4D252" transform="translate(208,201)"/>
<path d="M0 0 C0.99 0.33 1.98 0.66 3 1 C2.01 3.97 1.02 6.94 0 10 C-0.66 10 -1.32 10 -2 10 C-2.6875 7.25 -2.6875 7.25 -3 4 C-1.5625 1.625 -1.5625 1.625 0 0 Z " fill="#595E5E" transform="translate(707,174)"/>
<path d="M0 0 C3.24969769 -0.11638036 6.4988583 -0.18730581 9.75 -0.25 C10.67039062 -0.28351563 11.59078125 -0.31703125 12.5390625 -0.3515625 C19.40898911 -0.45112665 19.40898911 -0.45112665 22.640625 2.015625 C23.08921875 2.67046875 23.5378125 3.3253125 24 4 C23.67 4.66 23.34 5.32 23 6 C22.236875 5.525625 21.47375 5.05125 20.6875 4.5625 C16.28566207 2.0032919 12.28169353 1.72052596 7.3125 1.4375 C6.61060547 1.39431641 5.90871094 1.35113281 5.18554688 1.30664062 C3.45724794 1.2008264 1.7286489 1.09993419 0 1 C0 0.67 0 0.34 0 0 Z " fill="#F1D86A" transform="translate(32,133)"/>
<path d="M0 0 C6.40593286 1.10690752 12.71363856 2.33945169 19 4 C19 4.33 19 4.66 19 5 C13.72 4.67 8.44 4.34 3 4 C3 3.34 3 2.68 3 2 C2.01 1.67 1.02 1.34 0 1 C0 0.67 0 0.34 0 0 Z " fill="#F7D269" transform="translate(263,55)"/>
<path d="M0 0 C0.99 0 1.98 0 3 0 C3 3.63 3 7.26 3 11 C1.68 10.67 0.36 10.34 -1 10 C-0.67 6.7 -0.34 3.4 0 0 Z " fill="#090A0B" transform="translate(697,215)"/>
<path d="M0 0 C0.66 0.66 1.32 1.32 2 2 C1.01 2.33 0.02 2.66 -1 3 C-0.67 3.99 -0.34 4.98 0 6 C-0.33 6.99 -0.66 7.98 -1 9 C0.65 9.33 2.3 9.66 4 10 C4.33 9.34 4.66 8.68 5 8 C5 8.99 5 9.98 5 11 C2.36 11 -0.28 11 -3 11 C-3 9.35 -3 7.7 -3 6 C-3.99 6.495 -3.99 6.495 -5 7 C-3.75023244 3.34683329 -3.32901247 2.21934164 0 0 Z " fill="#2A2A2A" transform="translate(672,208)"/>
<path d="M0 0 C-2.81656132 2.81656132 -4.61601605 2.98950864 -8.57421875 3.09765625 C-9.94534658 3.09103244 -11.31645717 3.07914198 -12.6875 3.0625 C-13.38939453 3.05798828 -14.09128906 3.05347656 -14.81445312 3.04882812 C-16.54300538 3.03706927 -18.27151365 3.01913454 -20 3 C-20 2.67 -20 2.34 -20 2 C-6.3667426 -0.29612756 -6.3667426 -0.29612756 0 0 Z " fill="#F7C62E" transform="translate(146,78)"/>
<path d="M0 0 C-0.99 0 -1.98 0 -3 0 C-3 0.66 -3 1.32 -3 2 C-7.86051596 4.59227518 -12.65271133 4.18689553 -18 4 C-15.07089056 2.04726038 -12.91867709 1.24603637 -9.5625 0.3125 C-8.61503906 0.04050781 -7.66757813 -0.23148438 -6.69140625 -0.51171875 C-4.01081763 -0.99803744 -2.53712417 -0.89369149 0 0 Z " fill="#F5CE49" transform="translate(124,39)"/>
<path d="M0 0 C0.33 0 0.66 0 1 0 C1.40613432 11.41688701 1.40613432 11.41688701 -1 16 C-3.4375 17.4375 -3.4375 17.4375 -6 18 C-6.99 17.67 -7.98 17.34 -9 17 C-8.05125 16.4225 -7.1025 15.845 -6.125 15.25 C-2.50322391 12.64232122 -1.34967176 10.9924693 -0.5859375 6.640625 C-0.51632813 5.85171875 -0.44671875 5.0628125 -0.375 4.25 C-0.30023438 3.45078125 -0.22546875 2.6515625 -0.1484375 1.828125 C-0.09945312 1.22484375 -0.05046875 0.6215625 0 0 Z " fill="#F6D557" transform="translate(58,145)"/>
<path d="M0 0 C2.97 0.495 2.97 0.495 6 1 C6 1.66 6 2.32 6 3 C5.34 3 4.68 3 4 3 C4.33 6.3 4.66 9.6 5 13 C4.34 13 3.68 13 3 13 C2.86722656 12.39671875 2.73445313 11.7934375 2.59765625 11.171875 C2.42105469 10.37265625 2.24445312 9.5734375 2.0625 8.75 C1.88847656 7.96109375 1.71445312 7.1721875 1.53515625 6.359375 C1.052444 4.23121297 0.53836822 2.11467158 0 0 Z " fill="#F2C939" transform="translate(56,139)"/>
<path d="M0 0 C0.78375 0.04125 1.5675 0.0825 2.375 0.125 C0.88402342 3.9202131 -1.38200849 5.73542731 -4.625 8.125 C-4.625 7.135 -4.625 6.145 -4.625 5.125 C-5.615 5.62 -5.615 5.62 -6.625 6.125 C-3.85227273 0.18344156 -3.85227273 0.18344156 0 0 Z " fill="#666767" transform="translate(746.625,204.875)"/>
<path d="M0 0 C0 3.11227195 -0.45627049 5.94152152 -1 9 C-1.66 9 -2.32 9 -3 9 C-2.67 10.65 -2.34 12.3 -2 14 C-2.99 14.66 -3.98 15.32 -5 16 C-4.74213573 9.47603393 -4.17832479 5.12181749 0 0 Z " fill="#F5CB3C" transform="translate(150,149)"/>
<path d="M0 0 C-1.98 0.99 -1.98 0.99 -4 2 C-4 2.99 -4 3.98 -4 5 C-3.071875 5.12375 -2.14375 5.2475 -1.1875 5.375 C2 6 2 6 5 8 C0.94393835 7.53199289 -2.46588679 7.12046792 -6 5 C-6 3.35 -6 1.7 -6 0 C-3.50907189 -1.24546405 -2.58919267 -0.7767578 0 0 Z " fill="#F2D258" transform="translate(29,63)"/>
<path d="M0 0 C0.94602608 3.0851746 1.01578237 5.49259007 0.625 8.6875 C0.53476563 9.47511719 0.44453125 10.26273438 0.3515625 11.07421875 C0 13 0 13 -1 14 C-1.36760731 16.32817964 -1.70241581 18.6618385 -2 21 C-2.33 21 -2.66 21 -3 21 C-3.37369729 13.52605426 -2.04061541 7.17859349 0 0 Z " fill="#F6DA67" transform="translate(145,157)"/>
<path d="M0 0 C0.33 0 0.66 0 1 0 C1.33 1.98 1.66 3.96 2 6 C3.32 5.01 4.64 4.02 6 3 C6 4.32 6 5.64 6 7 C5.34 7 4.68 7 4 7 C4.33 7.99 4.66 8.98 5 10 C4.01 10.33 3.02 10.66 2 11 C2 10.01 2 9.02 2 8 C1.34 8 0.68 8 0 8 C0 5.36 0 2.72 0 0 Z " fill="#525254" transform="translate(734,208)"/>
<path d="M0 0 C1.32 0.66 2.64 1.32 4 2 C3.0409375 2.804375 3.0409375 2.804375 2.0625 3.625 C-0.38529404 6.44367193 -0.66714612 8.33860732 -1 12 C-1.33 12 -1.66 12 -2 12 C-2.05422947 10.5629191 -2.09289723 9.12524538 -2.125 7.6875 C-2.14820313 6.88699219 -2.17140625 6.08648437 -2.1953125 5.26171875 C-2 3 -2 3 0 0 Z " fill="#1B1B1B" transform="translate(546,207)"/>
<path d="M0 0 C3.375 0.625 3.375 0.625 7 2 C8.88410163 5.6862858 9.24128029 8.89823509 9 13 C8.731875 12.4225 8.46375 11.845 8.1875 11.25 C7.04946754 8.94252104 7.04946754 8.94252104 5.375 6.875 C4 5 4 5 4 3 C2.68 2.34 1.36 1.68 0 1 C0 0.67 0 0.34 0 0 Z " fill="#F5D863" transform="translate(282,157)"/>
<path d="M0 0 C0 0.66 0 1.32 0 2 C-5.45461169 3.38529821 -10.36718401 4.2396943 -16 4 C-11.0523795 1.11388804 -5.66834163 0 0 0 Z " fill="#F5C938" transform="translate(106,43)"/>
<path d="M0 0 C1.125 3.75 1.125 3.75 0 6 C-3.3 6 -6.6 6 -10 6 C-10 5.34 -10 4.68 -10 4 C-6.97265625 3.75585938 -6.97265625 3.75585938 -3.9453125 3.51171875 C-1.60480784 3.12606964 -1.60480784 3.12606964 0 0 Z " fill="#080808" transform="translate(647,211)"/>
<path d="M0 0 C1.99097846 2.98646769 2.94124926 5.59687262 4 9 C2.35 8.67 0.7 8.34 -1 8 C-1.93065133 5.39417629 -2.14917407 4.35801776 -1.0625 1.75 C-0.711875 1.1725 -0.36125 0.595 0 0 Z " fill="#4F4F4F" transform="translate(680,217)"/>
<path d="M0 0 C1.32 1.65 2.64 3.3 4 5 C3.01 6.32 2.02 7.64 1 9 C1 8.34 1 7.68 1 7 C0.01 7.66 -0.98 8.32 -2 9 C-2.99 8.67 -3.98 8.34 -5 8 C-4.0409375 7.13375 -4.0409375 7.13375 -3.0625 6.25 C-1.01776132 4.01937599 -0.41794801 2.92563609 0 0 Z " fill="#636363" transform="translate(386,214)"/>
<path d="M0 0 C0.99 0 1.98 0 3 0 C3 0.99 3 1.98 3 3 C3.66 3 4.32 3 5 3 C5.33 4.98 5.66 6.96 6 9 C3.69 9 1.38 9 -1 9 C-1 8.67 -1 8.34 -1 8 C0.65 8 2.3 8 4 8 C3.01 6.576875 3.01 6.576875 2 5.125 C0 2 0 2 0 0 Z " fill="#F8D352" transform="translate(196,158)"/>
<path d="M0 0 C0.66 1.32 1.32 2.64 2 4 C-1.63 3.67 -5.26 3.34 -9 3 C-9 2.34 -9 1.68 -9 1 C-4.545 0.505 -4.545 0.505 0 0 Z " fill="#F3CA39" transform="translate(228,108)"/>
<path d="M0 0 C0.66 0 1.32 0 2 0 C2 1.32 2 2.64 2 4 C4.31 4.33 6.62 4.66 9 5 C9 5.33 9 5.66 9 6 C5.7 6 2.4 6 -1 6 C-0.67 4.02 -0.34 2.04 0 0 Z " fill="#181818" transform="translate(634,220)"/>
<path d="M0 0 C2.97246802 2.54782974 4.41535288 5.45340883 6 9 C6 9.66 6 10.32 6 11 C5.34 11 4.68 11 4 11 C3.71125 10.360625 3.4225 9.72125 3.125 9.0625 C2.17176549 6.84793921 2.17176549 6.84793921 0 6 C0 4.02 0 2.04 0 0 Z " fill="#F5CB47" transform="translate(305,149)"/>
<path d="M0 0 C2.22825644 2.22825644 2.69239369 3.65761628 3.625 6.625 C4.01558594 7.85089844 4.01558594 7.85089844 4.4140625 9.1015625 C4.60742188 9.72804687 4.80078125 10.35453125 5 11 C3.35 10.67 1.7 10.34 0 10 C0.66 8.68 1.32 7.36 2 6 C1.34 6 0.68 6 0 6 C0 4.02 0 2.04 0 0 Z " fill="#575A5B" transform="translate(396,131)"/>
<path d="M0 0 C0.66 0.33 1.32 0.66 2 1 C-0.46153846 5.8 -0.46153846 5.8 -3.1875 6.8125 C-3.785625 6.874375 -4.38375 6.93625 -5 7 C-5.33 6.34 -5.66 5.68 -6 5 C-4.00856305 2.01284458 -3.23356015 1.21258505 0 0 Z " fill="#F5C72B" transform="translate(167,159)"/>
<path d="M0 0 C0.66 0 1.32 0 2 0 C1.67 1.65 1.34 3.3 1 5 C-2.3 4.01 -5.6 3.02 -9 2 C-9 1.67 -9 1.34 -9 1 C-6.03 1.33 -3.06 1.66 0 2 C0 1.34 0 0.68 0 0 Z " fill="#F9CB38" transform="translate(286,154)"/>
<path d="M0 0 C2.31 0.33 4.62 0.66 7 1 C5.02 1.99 5.02 1.99 3 3 C4.32 3.66 5.64 4.32 7 5 C0.84765625 4.4140625 0.84765625 4.4140625 -1 4 C-1.33 3.34 -1.66 2.68 -2 2 C-1.34 2 -0.68 2 0 2 C0 1.34 0 0.68 0 0 Z " fill="#636363" transform="translate(549,222)"/>
<path d="M0 0 C1.7074998 1.28062485 3.37373596 2.61767557 5 4 C5 4.66 5 5.32 5 6 C2.625 6.1875 2.625 6.1875 0 6 C-0.66 5.01 -1.32 4.02 -2 3 C-1.34 3 -0.68 3 0 3 C0 2.01 0 1.02 0 0 Z " fill="#3A3A3A" transform="translate(744,220)"/>
<path d="M0 0 C0.33 1.32 0.66 2.64 1 4 C-3.02992782 3.44687265 -7.02022924 2.8441938 -11 2 C-11 1.67 -11 1.34 -11 1 C-3.375 0 -3.375 0 0 0 Z " fill="#7B7B7B" transform="translate(647,222)"/>
<path d="M0 0 C0.33 1.32 0.66 2.64 1 4 C-2.4352048 6.29013653 -3.985331 6.17842973 -8 6 C-5.33333333 4 -2.66666667 2 0 0 Z " fill="#181818" transform="translate(420,220)"/>
<path d="M0 0 C1.125 1.75 1.125 1.75 2 4 C1.125 6.25 1.125 6.25 0 8 C-0.99 8 -1.98 8 -3 8 C-2.45276317 4.62537285 -1.9451 2.91765 0 0 Z " fill="#525254" transform="translate(700,136)"/>
<path d="M0 0 C0.99 0.33 1.98 0.66 3 1 C1.5511811 4.74278215 1.5511811 4.74278215 -0.875 5.875 C-3.47386397 6.02787435 -4.8019253 5.33454536 -7 4 C-5.02 3.67 -3.04 3.34 -1 3 C-0.67 2.01 -0.34 1.02 0 0 Z " fill="#515151" transform="translate(388,225)"/>
<path d="M0 0 C0.66 0.33 1.32 0.66 2 1 C1.71872579 2.48117801 1.42466268 3.95993249 1.125 5.4375 C0.96257812 6.26121094 0.80015625 7.08492187 0.6328125 7.93359375 C0.42398437 8.61550781 0.21515625 9.29742187 0 10 C-0.99 10.495 -0.99 10.495 -2 11 C-2.05399736 9.54207116 -2.09279177 8.08357288 -2.125 6.625 C-2.15980469 5.40683594 -2.15980469 5.40683594 -2.1953125 4.1640625 C-2 2 -2 2 0 0 Z " fill="#070707" transform="translate(371,209)"/>
<path d="M0 0 C-6.36363636 5 -6.36363636 5 -11 5 C-11 4.34 -11 3.68 -11 3 C-9.68 3 -8.36 3 -7 3 C-7 2.34 -7 1.68 -7 1 C-4.53721199 -0.231394 -2.7204945 -0.07159196 0 0 Z " fill="#F3CF53" transform="translate(70,176)"/>
<path d="M0 0 C1.98 0 3.96 0 6 0 C6 1.65 6 3.3 6 5 C5.01 5 4.02 5 3 5 C1.3125 2.5 1.3125 2.5 0 0 Z " fill="#1B1B1B" transform="translate(590,221)"/>
<path d="M0 0 C0.66 0 1.32 0 2 0 C2 0.66 2 1.32 2 2 C2.66 2 3.32 2 4 2 C4 2.66 4 3.32 4 4 C4.66 4.33 5.32 4.66 6 5 C3.69 4.67 1.38 4.34 -1 4 C-0.67 2.68 -0.34 1.36 0 0 Z " fill="#151515" transform="translate(469,211)"/>
<path d="M0 0 C1.9375 0.3125 1.9375 0.3125 4 1 C4.33 1.99 4.66 2.98 5 4 C4.34 4 3.68 4 3 4 C2.34 4.66 1.68 5.32 1 6 C0.34 5.34 -0.32 4.68 -1 4 C-0.625 1.875 -0.625 1.875 0 0 Z " fill="#393A3B" transform="translate(702,211)"/>
<path d="M0 0 C1.32 0.33 2.64 0.66 4 1 C3.67 2.65 3.34 4.3 3 6 C2.01 6.33 1.02 6.66 0 7 C0 4.69 0 2.38 0 0 Z " fill="#484B4D" transform="translate(514,177)"/>
<path d="M0 0 C0.99 0.99 1.98 1.98 3 3 C2.01 3.66 1.02 4.32 0 5 C-0.57748803 6.96361864 -0.57748803 6.96361864 -0.6875 9.125 C-0.790625 10.40375 -0.89375 11.6825 -1 13 C-1.33 13 -1.66 13 -2 13 C-2.05416188 11.39620659 -2.09286638 9.79188594 -2.125 8.1875 C-2.14820313 7.29417969 -2.17140625 6.40085938 -2.1953125 5.48046875 C-2 3 -2 3 0 0 Z " fill="#4D5152" transform="translate(516,144)"/>
<path d="M0 0 C1.9375 0.3125 1.9375 0.3125 4 1 C4.33 1.99 4.66 2.98 5 4 C3.35 4.33 1.7 4.66 0 5 C0 3.35 0 1.7 0 0 Z " fill="#1D1E1E" transform="translate(697,205)"/>
<path d="M0 0 C0.99 0 1.98 0 3 0 C1.44499019 3.81684226 -1.03595495 6.19195732 -4 9 C-3.34 7.02 -2.68 5.04 -2 3 C-1.34 3 -0.68 3 0 3 C0 2.01 0 1.02 0 0 Z " fill="#F2CF45" transform="translate(303,196)"/>
<path d="M0 0 C0.66 0 1.32 0 2 0 C1.67 1.32 1.34 2.64 1 4 C1.99 3.34 2.98 2.68 4 2 C4.33 2.99 4.66 3.98 5 5 C4 6 4 6 1.4375 6.0625 C0.2309375 6.0315625 0.2309375 6.0315625 -1 6 C-0.67 4.02 -0.34 2.04 0 0 Z " fill="#36383A" transform="translate(683,178)"/>
<path d="M0 0 C0.99 0 1.98 0 3 0 C2.46930939 3.82097239 1.50298434 6.06171403 -1 9 C-0.67 6.03 -0.34 3.06 0 0 Z " fill="#F6C837" transform="translate(114,160)"/>
<path d="M0 0 C0 0.33 0 0.66 0 1 C-1.65 1 -3.3 1 -5 1 C-5.33 1.99 -5.66 2.98 -6 4 C-6.99 4.33 -7.98 4.66 -9 5 C-8.25 2.5625 -8.25 2.5625 -7 0 C-4.07083439 -1.32284898 -3.12177395 -1.04059132 0 0 Z " fill="#FBCE1C" transform="translate(177,136)"/>
<path d="M0 0 C2.64 0 5.28 0 8 0 C7.67 0.99 7.34 1.98 7 3 C4.36 2.67 1.72 2.34 -1 2 C-0.67 1.34 -0.34 0.68 0 0 Z " fill="#1A1A1A" transform="translate(552,206)"/>
<path d="M0 0 C0 0.33 0 0.66 0 1 C-1.98 1.33 -3.96 1.66 -6 2 C-6.33 2.99 -6.66 3.98 -7 5 C-9 4 -9 4 -10 1 C-6.78548731 -0.60725635 -3.56387464 -0.05748185 0 0 Z " fill="#646464" transform="translate(558,205)"/>
<path d="M0 0 C2.97 0.33 5.94 0.66 9 1 C9 1.66 9 2.32 9 3 C2.84765625 2.4140625 2.84765625 2.4140625 1 2 C0.67 1.34 0.34 0.68 0 0 Z " fill="#EED14C" transform="translate(210,107)"/>
<path d="M0 0 C1.9375 0.8125 1.9375 0.8125 4 2 C4.33 2.99 4.66 3.98 5 5 C4.01 5.495 4.01 5.495 3 6 C2.34 5.67 1.68 5.34 1 5 C0.67 5.66 0.34 6.32 0 7 C0 4.69 0 2.38 0 0 Z " fill="#030303" transform="translate(732,215)"/>
<path d="M0 0 C2.97 0.495 2.97 0.495 6 1 C6.33 2.32 6.66 3.64 7 5 C4.11424181 4.60196439 3.17810487 4.20990931 1.25 1.9375 C0.8375 1.298125 0.425 0.65875 0 0 Z " fill="#F2CB3C" transform="translate(153,200)"/>
<path d="M0 0 C0.99 0.33 1.98 0.66 3 1 C3 3.31 3 5.62 3 8 C0.37613513 4.93882432 0 4.26826873 0 0 Z " fill="#F3D253" transform="translate(144,184)"/>
<path d="M0 0 C0.99 0.33 1.98 0.66 3 1 C1.68 3.31 0.36 5.62 -1 8 C-1.33 8 -1.66 8 -2 8 C-2.20086443 4.28400809 -2.1519437 3.22791555 0 0 Z " fill="#F6D266" transform="translate(255,160)"/>
<path d="M0 0 C-2.62647188 1.75098126 -5.28775382 3.38731308 -8 5 C-8 3.68 -8 2.36 -8 1 C-5.29120665 -0.35439668 -2.99066732 -0.06501451 0 0 Z " fill="#F3DA6D" transform="translate(125,158)"/>
<path d="M0 0 C0.99 0.33 1.98 0.66 3 1 C3 1.99 3 2.98 3 4 C3.94978897 6.15028304 3.94978897 6.15028304 5 8 C3.68 7.67 2.36 7.34 1 7 C0.67 4.69 0.34 2.38 0 0 Z " fill="#808384" transform="translate(483,149)"/>
</svg>
